<?xml version="1.0" encoding="UTF-8" standalone="no"?>
<svg width="280px" height="316px" viewBox="0 0 280 316" version="1.1" xmlns="http://www.w3.org/2000/svg" xmlns:xlink="http://www.w3.org/1999/xlink">
    <!-- Generator: Sketch 50.2 (55047) - http://www.bohemiancoding.com/sketch -->
    <title>asesoria</title>
    <desc>Created with Sketch.</desc>
    <defs></defs>
    <g id="index" stroke="none" stroke-width="1" fill="none" fill-rule="evenodd">
        <g id="Desktop-HD" transform="translate(-594.000000, -146.000000)" fill-rule="nonzero">
            <g id="asesoria" transform="translate(594.000000, 146.000000)">
                <g id="strategy">
                    <path d="M116,141.935469 L116,29.065149 C116,24.0582281 119.765808,20 124.410668,20 L271.589332,20 C276.234766,20 280,24.0588466 280,29.065149 L280,141.934851 C280,146.941772 276.234192,151 271.589332,151 L124.410668,151 C119.765234,151.000618 116,146.941772 116,141.935469 Z" id="Shape" fill="#4BCBB6"></path>
                    <path d="M255.557922,123 C254.174842,123 252.780844,122.52435 251.604623,121.543514 L223.563779,98.1375981 L195.684401,113.581146 C194.084119,114.467837 192.210324,114.594594 190.519254,113.93373 C188.827035,113.272251 187.471536,111.881605 186.782007,110.100225 L169.469085,65.4100503 L148.367775,69.6232136 C145.775721,70.140706 143.15034,68.913123 141.743126,66.5237973 L129.992978,46.5711121 C128.096774,43.3510911 128.997184,39.0942393 132.004679,37.0636508 C135.010451,35.0324471 138.986734,35.9972842 140.882939,39.2173053 L150.303053,55.2134196 L172.236969,50.8341172 C175.224928,50.2366319 178.196797,51.9620168 179.362101,54.9691336 L195.990092,97.8914662 L221.311893,83.8644073 C223.544817,82.6282096 226.244323,82.8958781 228.226719,84.5498847 L259.520415,110.670636 C262.323925,113.011351 262.824983,117.342658 260.639751,120.344852 C259.369868,122.087466 257.473664,123 255.557922,123 Z" id="Shape" fill="#3390A6"></path>
                    <path d="M140.378657,119 C138.493553,119 136.626657,118.104434 135.369163,116.389767 C133.189316,113.418004 133.663295,109.109009 136.428076,106.765488 L188.678968,62.4722712 C191.444318,60.1281386 195.451231,60.6383178 197.631078,63.6100808 C199.810356,66.5818439 199.336946,70.8908391 196.572165,73.2343599 L144.321273,117.527576 C143.152542,118.519184 141.760763,119 140.378657,119 Z" id="Shape" fill="#7DD8C9"></path>
                    <path d="M76,316 C68.2685796,316 62,309.279569 62,300.989478 L62,181.010522 C62,172.721047 68.2680057,166 76,166 C83.7319943,166 90,172.720431 90,181.010522 L90,300.989478 C90,309.279569 83.7319943,316 76,316 Z" id="Shape" fill="#F7D565"></path>
                    <path d="M43,316 C35.2685796,316 29,309.279569 29,300.989478 L29,181.010522 C29,172.721047 35.2680057,166 43,166 C50.7319943,166 57,172.720431 57,181.010522 L57,300.989478 C56.9994261,309.279569 50.7319943,316 43,316 Z" id="Shape" fill="#F7D565"></path>
                    <path d="M156.269935,100.955749 C152.923311,95.1135473 145.840919,93.3176044 140.448598,96.9451998 L117.17845,112.603212 L117.17845,89.3199844 C117.103462,73.1528039 104.79804,60 89.8811036,60 L89.4561715,60 L58.9905812,60 L27.7552275,60 C12.5264091,60 0.074988027,73.2205288 0,89.4702107 C0,89.4911438 0,89.512077 0,89.5330102 L0,181.483811 C0,188.396683 5.17019722,194 11.5487242,194 C17.9272513,194 23.0974485,188.396683 23.0974485,181.483811 L23.0974485,89.5742608 C23.1218764,87.1940362 25.3357275,85.0317627 27.7557956,85.0317627 L28.1716383,85.0317627 L28.1716383,180.201962 L89.3419851,180.201962 L89.3419851,85.0329941 L89.4556034,85.0329941 L89.4556034,84.9049323 L89.8805355,84.9049323 C92.1909621,84.9049323 94.2906268,86.9422224 94.3019886,89.4455834 L94.3019886,134.985081 C94.3468678,144.736245 104.249832,150.617234 111.851459,145.500921 L152.568822,118.103094 C157.960575,114.475499 159.617128,106.798566 156.269935,100.955749 Z" id="Shape" fill="#F7D565"></path>
                    <ellipse id="Oval" fill="#F7D565" cx="59" cy="26" rx="24" ry="26"></ellipse>
                    <g id="Group" transform="translate(129.000000, 196.000000)" fill="#4BCBB6">
                        <ellipse id="Oval" cx="59.594399" cy="26.7095385" rx="24.2719952" ry="26.1076923"></ellipse>
                        <path d="M90.9274423,61.1329231 L59.5457692,61.1329231 L59.4450769,61.1329231 L28.0628317,61.1329231 C12.8594375,61.1329231 0.291778846,74.4369231 0.2156875,90.7901538 L0.2156875,120 L23.6358029,120 L23.6358029,90.9169231 C23.6472452,88.384 25.7085769,86.3236923 28.0628317,86.3236923 L28.2933942,86.3236923 L28.2933942,120 L90.3181394,120 L90.3181394,86.3236923 L90.9274423,86.3236923 C93.2822692,86.3236923 95.3430288,88.384 95.3544712,90.9169231 L95.3544712,120 L118.774587,120 L118.774587,90.7901538 C118.698495,74.4375385 106.131409,61.1329231 90.9274423,61.1329231 Z" id="Shape"></path>
                    </g>
                </g>
            </g>
        </g>
    </g>
</svg>