<?xml version="1.0" encoding="utf-8"?>
<!-- Generator: Adobe Illustrator 22.1.0, SVG Export Plug-In . SVG Version: 6.00 Build 0)  -->
<svg version="1.1" xmlns="http://www.w3.org/2000/svg" xmlns:xlink="http://www.w3.org/1999/xlink" x="0px" y="0px"
	 viewBox="0 0 735.7 444" style="enable-background:new 0 0 735.7 444;" xml:space="preserve">
<style type="text/css">
	.st0{display:none;}
	.st1{display:inline;}
	.st2{fill:#38CBC5;}
	.st3{enable-background:new    ;}
	.st4{display:inline;fill:#38CBC5;}
	.st5{font-family:'Nunito-Bold';}
	.st6{font-size:155.1154px;}
	.st7{fill:#FFFFFF;}
	.st8{fill:#56F4E9;}
	.st9{fill:#DCE4E7;}
	.st10{fill:#F5CE4E;}
	.st11{fill:#F4BB67;}
	.st12{fill:#373E4F;}
</style>
<g id="logowebdi" class="st0">
	<title>di</title>
	<g class="st1">
		<g>
			<path class="st2" d="M445.9,65c-3.7-19.9-18.5-38.8-39.3-46.6c-39.7-15-82.3,17.2-81.5,19.2c0.7,1.5,38.4-14.8,47.9-4.6
				c6.9,7.4-11.3,20.9-10.2,47.4c0.3,6.9,1,23.5,14.4,34.2c13.2,10.5,34.2,11.5,48.7,3.8C452.6,104.5,446.6,68.3,445.9,65z"/>
			<path class="st2" d="M404.6,149.6c-28.5,31.5,10.6,61.8-18.8,109.1c-10.1,16.3-23.4,26.5-18.8,33c7.1,10,46.8-1.6,50.2-2.5
				c11.3-3.3,17.5-5.2,20.4-9.7c6.1-9.5-10.9-17.6-20.1-35.5c-14.1-27.1-2.8-62.6,12.3-85c13.7-20.2,30.7-29.9,27.9-33
				C454.3,122.3,422,130.3,404.6,149.6z"/>
		</g>
		<g class="st3">
			<path class="st2" d="M284.3,298c-2.6-3.9-51.9-173.5,20.3-188.8l0,0c31.2-5.2,64.5,9.5,77.3,26.4c12.7,16.9,18.8,41.6,18.3,74.2
				c-0.6,31.6-7.3,55.4-20.1,71.4c-12.9,16-31.5,23.7-56,23.3C323.9,304.5,286.9,301.9,284.3,298z M265.9,166
				c-71.7,16.1-71.9,98,11.3,98.9C401.7,266.1,392.7,137.5,265.9,166z"/>
		</g>
	</g>
	<text transform="matrix(1.1009 7.710056e-03 -6.744544e-03 1 112.9721 408.4341)" class="st4 st5 st6">webdi</text>
</g>
<g id="forma-community">
	<g id="XMLID_396_">
		<g id="XMLID_707_">
			<path id="XMLID_614_" class="st2" d="M248.4,189.8c23.3-3.7,46.9-4.7,70.4-3.2c3.9,0.3,8,0.6,11.5-1.1c2.8-1.3,5-3.7,7.1-6.1
				c5.9-6.6,11.8-13.2,16.5-20.8c7.4-11.9,9.5-25.6,8.9-39.5c-0.3-6.7,0-14.2,4.6-18.9c3.4-3.5,8.6-4.8,13.3-4c4.7,0.8,9,3.5,12.5,7
				c8.5,8.3,12.5,20.6,13.2,32.7c0.7,12.1-1.5,24.1-3.6,35.9c15.3-1.8,30.5-1.9,45.9-0.8c6.8,0.5,13.7,1.3,19.8,4.3
				c6.1,3,11.5,8.6,12.7,15.5c1.2,6.9-2.8,14.8-9.4,16.4c3.6,5,4.8,11.7,3.2,17.7c-1.6,6-6,11.1-11.5,13.5c5,7.2,2,18.9-5.9,22.5
				c4.7,10.7-0.2,24.9-10.5,30c-6.5,3.3-14.2,3-21.4,2.7c-25.7-1.2-51.4-2.3-77.2-3.5c-4.6-0.2-9.4-0.5-13.2-3.2
				c2.7,2.7,1.9,7.5-1.2,9.8c-3.1,2.2-7.2,2.4-11,2.5c-10.7,0.2-21.4,0.4-32,0.4c-5.3,0-10.7-0.1-16-0.3c-2.6-0.1-5.4-0.6-8-0.4
				c-3.3,0.2-5.4,2-7.7-1.3c-2.2-3.1-2-9.5-2.6-13.2c-1.7-10.4-3.4-20.9-4.8-31.4C249.2,232.1,247.5,210.9,248.4,189.8z"/>
			<path id="XMLID_630_" class="st7" d="M457.5,206.3c5.1,2.1,6.5,9.3,4.3,14.5c-2.3,5.2-7,8.6-11.7,11.5c4.2,3.5,6.2,9.6,4.9,15.1
				c-1.3,5.4-5.7,9.9-11,11.1c10.2,5.9,3.2,19.5-5.2,22.5c-14.6,5.2-30.8,3.9-45.9,3.4c-14.3-0.5-31.1,2.6-44.7-2.7
				c-4.5-1.8-9.2-5.1-14.1-6.4c-2.4-0.6-4.9-0.7-7.3,0.1c-2.3-20.7-0.6-42.8-0.8-63.7c0-2-0.7-5.5-0.1-7.3c0.8-2.3,0.9-1.7,3-3.2
				c1.9-1.3,3.7-2.5,5.6-3.9c1.4-1,2.8-2.1,4-3.2c6.3-5.7,11.3-13,15.8-20.3c4.7-7.3,9.5-14.6,12.9-22.7c3.4-8,5.5-16.9,4.6-25.6
				c-0.4-3.9-1.4-7.8-1-11.7c0.3-2.9,1.8-5.9,4.1-7.4c0.7-0.5,1.4-0.8,2-1c7.5-2.2,15.8,10.4,18.7,15.9c4.8,9,6.7,19.9,4.5,30
				c-0.9,4-2.3,8-3,12c-0.7,4.1-0.6,8.5,1.4,12.1c1.5,2.7,3.7,4.1,6.3,4.8c4,1.1,8.9,0.5,12.8,0.5c5.7,0,11.5,0,17.2,0.1
				c4,0,8,0,12,0c4.9,0,10.2,0.1,14.2,3c3.7,2.7,5.8,7.7,5.1,12.4C465.4,200.9,461.9,204.9,457.5,206.3z"/>
			<path id="XMLID_613_" class="st8" d="M318.5,197.4c-0.8,0-1,44.5-1,48.6c0,8.3,0.1,16.5,0.3,24.8c0.1,5.2,2.3,13.6,0.5,18.5
				c-5,0.7-54.2,2.1-54.2,1.1c-0.3-30.9-2.7-61.7-7.5-92.2C277.3,197.6,297.9,197.8,318.5,197.4z"/>
			<path id="XMLID_626_" class="st9" d="M404.8,180.2c-0.5,0.4-1.1,0.8-1.7,1.1c-0.8,0.4-3.2,0.6-6.3,0.7c-7.2,0.2-17.7-0.7-18-3
				c-0.2-1.9,0.9-3.7,1.9-5.4c9.2-16.4,7.4-41.7-0.3-58.4c-1.5-3.2-4.2-5.6-5.4-8.8c0.6-0.4,1.3-0.7,1.9-1
				c7.5-2.2,15.8,10.4,18.7,15.9c4.8,9,6.7,19.9,4.5,30c-0.9,4-2.3,8-3,12c-0.7,4.1-0.6,8.5,1.4,12.1
				C400,178.1,402.2,179.5,404.8,180.2z"/>
			<path id="XMLID_622_" class="st9" d="M457.5,206.3c5.1,2.1,6.5,9.3,4.3,14.5c-2.3,5.2-7,8.6-11.7,11.5c4.2,3.5,6.2,9.6,4.9,15.1
				c-1.3,5.4-5.7,9.9-11,11.1c10.2,5.9,3.2,19.5-5.2,22.5c-3.8,1.4-8,1.6-12,1.8c-1.4,0.1-2.9,0.1-4.3,0.1c2.4-2.2,4.5-4.6,6.2-7.4
				c3.3-5.6,4.1-13.4,0.2-18.6c7.1-4.5,8.3-16.3,2.2-22.2c4-2.5,8.1-5,11.3-8.6c3.1-3.6,5.3-8.5,4.6-13.2c-0.7-4.8-4.9-9.1-9.5-8.8
				c6.8-2.9,11.1-13.7,4.5-18.9c-1.8-1.5-5.1-1.2-6.5-3.4c-0.2-0.3-0.4-0.6-0.5-0.8c4,0,8,0,12,0c4.9,0,10.2,0.1,14.2,3
				c3.7,2.7,5.8,7.7,5.1,12.4C465.4,200.9,461.9,204.9,457.5,206.3z"/>
			<path id="XMLID_624_" class="st9" d="M337.7,199.3c-1.2,25.3-2.4,50.6-3.7,76c-2.4-0.6-4.9-0.7-7.3,0.1
				c-2.3-20.7-0.6-42.8-0.8-63.7c0-2-0.7-5.5-0.1-7.3c0.8-2.3,0.9-1.7,3-3.2c1.9-1.3,3.7-2.5,5.6-3.9
				C335.6,197.9,336.7,198.6,337.7,199.3z"/>
			<path id="XMLID_612_" class="st7" d="M310.6,283.2c0,0-29.7,1.6-33,1.4c0.6-11-2.6-23.4-3.7-34.6c-1.4-14.2-2.7-28.4-4.1-42.6
				c14.6-0.5,29.1-1,43.7-1.5C312.6,231.7,311.6,257.4,310.6,283.2z"/>
			<path id="XMLID_615_" class="st7" d="M301.2,268.6c7.6-2.7,10.7,10.2,2.4,11.5C295.9,281.2,294.3,271.1,301.2,268.6z"/>
			<path id="XMLID_623_" class="st2" d="M466.6,165.6c-1.7-0.2-2,2.7-0.4,3c7.3,1.7,14.3,5.5,18.2,12.3c0.5,0.8,1.5,0.4,1.6-0.5
				C487.1,171.2,473.4,166.3,466.6,165.6z"/>
			<path id="XMLID_627_" class="st10" d="M407.4,105.1c-2.6-5-6.6-9.1-11.4-11.8c-8.6-5-22.9-7.2-30.9,0.2c-0.7,0.6,0,1.8,0.9,1.6
				c4.8-1.4,8.9-3.2,14-3.1c4.9,0.1,9.7,1.6,14,4.1c4.1,2.5,7.6,6,9.9,10.2c1.3,2.3,2.1,4.8,2.6,7.4c0.5,2.7,0.2,5.4,0.9,8
				c0.3,1,1.8,1.4,2.3,0.3C412.1,116.9,409.8,109.7,407.4,105.1z"/>
			<path id="XMLID_628_" class="st2" d="M412.5,129.2c-0.2-1-1.7-1-1.9,0c-0.8,4.5-1.5,10.2,0.2,14.5c0.3,0.8,1.2,0.8,1.6,0
				C414,139.4,413.3,133.7,412.5,129.2z"/>
		</g>
		<g id="XMLID_21_">
			<g id="XMLID_20_">
				<path id="XMLID_19_" class="st10" d="M237.6,169.5c-7.7,2.6-15.4,5.6-23.2,7.9c-6.1,1.7-13.3,5.3-19.7,4.7
					c-9.5-0.9-10.7-11-12.9-18.6c-2.9-10.1-5.9-20.3-8.8-30.4c-1.9-6.6-3.5-18,2.1-23.4c2.1-2.1,5-3.1,7.7-4.1
					c9.3-3.3,18.6-6.2,28.1-8.7c6.6-1.7,16.8-4.9,23.4-2.1c6.8,2.9,9.2,11.5,10.7,19c2.1,10.2,4.2,20.4,6.3,30.5
					c1.2,5.6,2.2,11.9-0.6,16.8C248.1,165.8,242.6,167.8,237.6,169.5z"/>
				<g id="XMLID_18_">
					<path id="XMLID_14_" class="st7" d="M201.3,172.3c-2.9,0.4-5.5,0.1-7.2-1.4c-2.6-2.3-3.8-5.9-4.8-9.3
						c-2.9-9.6-5.8-19.2-8.7-28.8c-1.5-5.1-4.1-13.3,0.4-17.7c6.4-6.3,15.7-7.8,24.1-9.5c6.3-1.3,17.9-6.4,23.9-2.7
						c2.5,1.5,3.9,4.3,5.1,7c2.7,6,17.1,44.3,7.8,48c-7.2,2.8-14.5,5.8-21.8,8.3C216.1,167.6,207.8,171.5,201.3,172.3z"/>
					<path id="XMLID_16_" class="st2" d="M200.8,139.5c-1.9,4-3.6,9-6.3,12.4c-5-2.5-7-20-8.5-25.5c-0.3-1.1-0.6-2.3-0.2-3.4
						c0.5-1.7,2.3-2.4,4-3c12.3-4.2,25-7,37.8-8.4c0.4,6.3,1.6,12.6,3.5,18.6c-2.8,0.2-4.7-3-7.4-3.9c-3.8-1.2-7.4,2.6-9.2,6.3
						c-1.7,3.7-3.1,8.2-6.6,10.1C205.9,141,203.4,139.8,200.8,139.5z"/>
					<path id="XMLID_17_" class="st7" d="M206.8,130.2c-1.5,11.6-20.2,2.8-11.7-5.4c2.3-2.2,6-2.4,8.6-0.7
						C205.7,125.4,207.1,127.8,206.8,130.2z"/>
				</g>
			</g>
		</g>
		<g id="XMLID_29_">
			<path id="XMLID_28_" class="st10" d="M326.4,138.1c1.4-8.7-1.2-17.7-5.5-25.4c-4.3-7.7-10.2-14.2-16.1-20.7
				c-5.7-6.3-11.4-12.5-17.1-18.8c-5.4-5.9-11.2-12.1-18.7-14.4c-7.6-2.3-17.4,1.2-19.2,9.1c-1.4,5.8,1.8,11.7,5,16.7
				c9.1,14.5,18.9,28.6,30.2,41.4c5.1,5.8,10.7,11.5,17.4,15.3c6.7,3.8,14.8,5.6,22.1,3.5c0.8-2.1,1.6-4.2,2.4-6.3"/>
			<path id="XMLID_33_" class="st11" d="M283.2,77.5c5.4,7,10.8,13.9,16.3,20.9c3.2,4.1,6.8,7.7,10,11.8c1.6,2.1,3.2,4.1,4.2,6.6
				c0.3,0.8,0.8,1.6,1.3,2.4c0.8,1.4,1.8,2.7,2.2,4.4c0.3,1.2,0.2,2.9,0.4,4.2c0.3,3.1,0.7,6.1,1,9.2c0,0.1,0,0.2,0,0.3
				c0,0.6,0,1.3-0.4,1.7v0c0,0-0.1,0.1-0.1,0.1c-0.5,0.4-1.3,0.2-1.9,0c-1.4-0.5-2.9-1-4.3-1.5c-0.1,0-0.3,0-0.4-0.1
				c-5-0.8-9.1-3.5-12.6-6.9c-5.1-4.9-9.1-11.4-13.1-16.8c-6.9-9.2-13.9-18.4-20.8-27.5C268.8,80.8,276.4,77.4,283.2,77.5z"/>
			<path id="XMLID_34_" class="st7" d="M259.1,76.9c-1.1-3.3-1.1-7.3,0.9-10.1c2.8-4,8.3-3.1,12.1-1.5c2.3,0.9,3.9,3,5.5,5
				c1.9,2.4,3.8,4.8,5.6,7.2c-6.8-0.1-14.4,3.3-18.4,8.8c-0.1-0.2-0.2-0.3-0.4-0.5C262.4,83.1,260.2,80.2,259.1,76.9z"/>
			<path id="XMLID_35_" class="st7" d="M297.8,128.6c0.2,0.7,0.5,1.3,1,2c3.5,3.4,7.6,6,12.6,6.9c0.1,0,0.3,0,0.4,0.1
				c1.4,0.5,2.9,1,4.3,1.5c0.6,0.2,1.4,0.4,1.9,0c0,0,0.1-0.1,0.1-0.1v0c0.2-0.4,0.3-1,0.4-1.7c0-0.1,0-0.2,0-0.3
				c-0.3-3.1-0.7-6.1-1-9.2c-0.1-1.3,0-3-0.4-4.2c-0.5-1.6-1.4-3-2.2-4.4c-3.5-1.3-8,0.8-7.4,5.5c-2.1-0.7-4.2-1.4-6.4-0.9
				C299.1,124.3,297.2,126.5,297.8,128.6z"/>
			<path id="XMLID_22_" class="st2" d="M270,75.8c-3,2.3-5.1,5.7-7.1,9c2.1,2.5,3.7,5.2,6.2,7.3c-0.6-0.5,6.5-6.7,7.3-7.1
				c3.1-2,6.6-3.2,10.2-2.8c-0.8-2.2-1.6-4.4-3.2-6.1C280,72,273.8,72.9,270,75.8z"/>
			<path id="XMLID_27_" class="st12" d="M309.7,137.5c-0.2-0.8,0-1.6,0.4-2.2c0.4-0.7,1-1.2,1.6-1.7c1.3-1.2,2.7-2.2,4.1-3.2
				c0.5-0.4,1.3-0.8,1.8-0.3c0.3,0.3,0.4,0.7,0.4,1.2c0.2,2.4,0.5,4.9,0.7,7.3c0.1,0.8-0.8,0.9-1.5,1c-0.7,0.1-1.5-0.2-2.2-0.4
				c-1.8-0.7-3.6-1.4-5.4-2"/>
			<path id="XMLID_31_" class="st2" d="M281.3,129.3c2.7,2.6,5.3,4.8,8.3,7.1c2.9,2.2,5.4,4.9,8.6,6.7c3.8,2,8.7,4.4,12.9,5.3
				c2.8,0.6,5.7-0.1,8.2,1.4c0.6,0.4,0.4,1.6-0.4,1.5c-3.7-0.5-7.3,0-10.9-1.4c-4-1.5-8.4-3.1-12-5.5c-3.4-2.2-6.3-5.1-9.5-7.5
				c-2.6-1.9-5.4-3.7-6.6-6.8C279.5,129.3,280.8,128.8,281.3,129.3z"/>
			<path id="XMLID_32_" class="st10" d="M265.1,105.8c2.5,2.4,4.2,6,6.2,8.9c2.3,3.2,5,6.2,6.8,9.8c0.3,0.5-0.3,0.9-0.8,0.6
				c-3-2.4-5.3-5.6-7.6-8.7c-2.2-2.9-5.1-6.2-6-9.8C263.6,105.8,264.6,105.3,265.1,105.8z"/>
			<path id="XMLID_36_" class="st10" d="M272.2,55.8c11.8,3.6,20.3,12.6,28.4,21.7c4.3,4.8,8.6,9.5,12.7,14.4
				c2.9,3.4,6.4,6.9,7,11.5c0.1,1.1-1.5,1.2-1.8,0.3c-1.7-4.7-5.6-8.2-8.8-11.9c-3.7-4.4-7.7-8.6-11.6-12.9
				c-7.6-8.5-15.6-17-26.7-20.4C269.8,57.9,270.5,55.3,272.2,55.8z"/>
			<path id="XMLID_37_" class="st2" d="M324.6,112.2c0.1-0.1,0.2-0.1,0.3-0.1c0.1,0,0.1,0,0.2,0c0.3,0,0.7,0.2,0.9,0.5
				c1,2.2,1.7,4.5,2.3,6.8c0.7,2.4,1.5,5,1.7,7.5c0.1,0.9-1.1,1.1-1.5,0.4c-2.5-3.9-3.1-9.6-4.3-14
				C324,112.8,324.3,112.4,324.6,112.2z"/>
		</g>
		<g id="XMLID_66_">
			<path id="XMLID_65_" class="st2" d="M550.4,179.1c-1.4,0.2-2.7,0.3-4,0.2c0-5,7-13.3-2-14.2c-7.3-0.8-11.1-3.1-10.6-11
				c0.8-13.5,3.1-26.8,6.8-39.8c3-10.8,10-10,19.2-8.7c13.9,2,27.6,5.1,41.3,8.5c4.9,1.2,10.1,2.6,14,5.9
				c10.3,8.5,4.4,24.1,1.3,35.1c-1.7,5.9-4.1,18.9-9.8,21.8c-3.2,1.6-7,1.5-10.6,1.2c-10.4-0.9-19.9-5-30.1-5.5
				c-3.4-0.2-5.4,3.9-8.6,4.9C555.3,178.1,552.8,178.8,550.4,179.1z"/>
			<path id="XMLID_30_" class="st7" d="M589.8,171.3c0.4,0.1,0.7,0.1,1.1,0.2c4,0.7,8.4,1.2,11.7-1.1c3.6-2.5,4.6-7.3,5.4-11.7
				c1-5.7,2-11.3,2.9-17c0.7-4.1,3.7-11.4,2-15.4c-1.4-3.4-5.4-4.5-8.9-5.3c-13-2.9-25.9-5.8-38.9-8.7c-5.7-1.3-12.6-2.2-16.5,2.3
				c-2.1,2.4-2.7,5.7-3.3,8.8c-1.8,8.5-4.4,17.7-4.7,26.4c-0.1,2.7,0.2,5.6,1.6,7.9c3.7,6.2,14.2,6.2,20.3,7.8
				C571.5,167.7,580.6,169.7,589.8,171.3z"/>
			<path id="XMLID_64_" class="st7" d="M566.6,164.2c-4.2-1-7.2-1.2-11.5-1c-0.7,3.1-1.4,6.1-2.2,9.2c4.6-1.1,10-3.3,14-5.9
				c0.5-0.3,1-0.7,0.9-1.3C567.9,164.7,567.2,164.4,566.6,164.2z"/>
			<path id="XMLID_68_" class="st10" d="M556.3,102.5c-1.9-5.9-11.2-2.6-14.3,0.2c-2.2,1.9-3.6,4.5-4.5,7.2
				c-0.8,2.6-1.8,6.8-0.1,9.2c0.1,0.2,0.4,0.1,0.4-0.1c0.7-2.2,0.4-4.6,1-6.9c0.7-2.5,1.8-5.1,3.7-7c1.7-1.8,4.1-3,6.6-3.3
				c2.6-0.3,4.1,1,6.3,1.7C556,103.6,556.5,103,556.3,102.5z"/>
			<path id="XMLID_70_" class="st10" d="M620.5,163.1c-0.2-1.2-2-0.7-2,0.4c-0.1,2.4-1.6,5.1-2.1,7.4c-0.6,2.4-1.2,4.9-2.8,6.9
				c-2.3,2.9-5.9,3.5-9.4,3.4c-9.7-0.2-19.1-3.4-28.8-4.3c-0.7-0.1-0.9,0.8-0.2,1.1c6.6,2.4,13.6,3.8,20.5,4.7
				c4,0.6,8.2,1.3,12.2,0.7c3.5-0.5,6.5-2.3,8.4-5.5c1.5-2.5,1.9-5.3,2.7-8.1C619.6,167.5,621,165.6,620.5,163.1z"/>
		</g>
		<g id="XMLID_74_">
			<path id="XMLID_73_" class="st2" d="M486.6,143.7c6.8-2.7,13.5-5.7,19.3-10.2c5.8-4.5,10.6-10.5,12.3-17.5
				c2.1-8.7-1.1-18.2-7.9-23.7c-6.8-5.5-17-6.6-25.1-2.8c-2.4-8.9-9.9-16.1-19-18.1c-9.1-2-19.3,1.3-25.7,8.2
				c-8.9,9.7-9.5,24.8-4.8,36.7c3.2,8.2,8.3,15.4,14.1,21.9c3.6,4,7.1,10.2,12.4,12.2C468.9,152.9,480.1,146.3,486.6,143.7z"/>
			<path id="XMLID_67_" class="st2" d="M484.3,136.3c-5.1,2.1-10.5,3.8-15.2,5.9c-1.6,0.7-3.4,1.4-5.1,1.1c-2.4-0.4-3.9-2.6-5.1-4.7
				c-8.4-13.7-29.5-43-6.6-56.4c6.6-3.9,15.4-2.8,21,2.1c5.6,4.8,7.9,12.9,6.5,20.2c3.9-4.3,8.5-8.8,14.2-9.2
				c6.8-0.5,12.8,5.2,13.9,11.8c1.1,6.6-1.9,13.5-6.5,18.5C496.9,130.5,490.7,133.7,484.3,136.3z"/>
			<path id="XMLID_76_" class="st2" d="M434.5,121.4c1.9-3.2-1.5-8.3-2.6-11.1c-2.1-5.5-1.1-11.9,0.4-17.5c0.2-0.6-0.8-0.8-1.1-0.2
				c-2.2,4.7-3.1,11.2-1.8,16.2c0.6,2.1,1.5,4.1,2.3,6.1c0.9,2.1,1.3,4.1,1.7,6.4C433.6,121.6,434.2,121.9,434.5,121.4z"/>
			<path id="XMLID_77_" class="st2" d="M459.1,152.3c-2.6-1.7-4.9-3.2-7-5.5c-2.1-2.2-3.9-4.7-5.7-7.1c-1.7-2.5-3.4-5-5.1-7.5
				c-0.9-1.3-2.5-4.9-4.3-4.8c-0.1,0-0.3,0.1-0.3,0.3c-0.3,1,0.4,1.6,0.9,2.4c0.8,1.1,1.5,2.2,2.3,3.3c1.9,2.8,3.7,5.6,5.6,8.3
				c1.9,2.6,3.9,5.2,6.2,7.4c1.8,1.8,4.1,3.9,6.6,4.6C459.1,154,459.9,152.9,459.1,152.3z"/>
			<path id="XMLID_78_" class="st2" d="M520.2,100c0.4-3.4-1.9-7.1-3.8-9.7c-2-2.8-4.6-5.3-7.9-6.4c-3.3-1.1-7-1.6-10.5-1.6
				c-3-0.1-6.6-0.1-9.2,1.8c-0.6,0.5,0,1.5,0.7,1.2c5.4-2.3,12.7-1.4,18,0.3c3.2,1,5.5,3.3,7.4,6c2,2.7,2.8,5.7,4.1,8.8
				C519.3,100.7,520.1,100.6,520.2,100z"/>
			<path id="XMLID_79_" class="st2" d="M515.5,131.5c2.7-2.6,5.4-5.5,7.2-8.8c1.2-2.1,2.5-5.5,1.1-7.7c-0.2-0.3-0.7-0.1-0.8,0.2
				c-0.2,2.9-0.9,5.2-2.5,7.8c-2,3.1-4.7,5.9-7.5,8.4c-5,4.6-10.7,8-16.2,12c-0.4,0.3-0.1,1.1,0.4,0.9c3.1-0.8,5.7-2.8,8.3-4.6
				C509,137.1,512.4,134.4,515.5,131.5z"/>
			<path id="XMLID_80_" class="st2" d="M461.9,66.1c-2.1-0.4-4.7,0.3-6.9,0.7c-2.3,0.4-4.5,0.9-6.7,1.7c-4.2,1.6-7.1,5-9.7,8.6
				c-0.3,0.4,0.2,0.8,0.6,0.5c1.5-1,2.7-2.4,3.9-3.7c1.8-1.9,3.8-3.2,6.2-4c2.2-0.7,4.4-1.2,6.7-1.5c1.9-0.3,4.3-0.2,6-1.1
				C462.7,67.1,462.6,66.3,461.9,66.1z"/>
		</g>
		<path id="XMLID_398_" class="st10" d="M219.6,265.2c-4.2-1.1-10.4,2.7-13.8,4.9c-3.7,2.5-8.8,6.4-7.4,11.6c0.4,1.4,2,2.6,3.5,2
			c3.7-1.4,6.7-4.8,10.1-6.8c3.1-1.8,8.5-4.5,9.5-8.3C221.8,267.1,221,265.5,219.6,265.2z"/>
		<path id="XMLID_399_" class="st10" d="M211.7,220.5c-0.6-1.2-2.1-2.1-3.5-2.1c-3.7,0.2-7.1,1.2-10.6,2.3c-3.2,1-6.6,1.6-9.6,3.1
			c-1.6,0.8-1.4,3.2,0,4.1c5.9,3.9,15,0.2,21.2-1.4c1.4-0.3,2.4-1.5,2.8-2.9C212.4,222.4,212.2,221.6,211.7,220.5z"/>
		<path id="XMLID_400_" class="st10" d="M253.7,316.6c-2.3,0-3.8,1.9-5.3,3.3c-3.2,3.1-6.4,5.1-10.6,6.5c-2.9,1-3.2,5.2,0.1,6.1
			c4.2,1.2,9.1-0.6,12.5-2.8c3.1-2,8.5-5.8,7.3-10.1C257.2,317.8,255.7,316.6,253.7,316.6z"/>
		<path id="XMLID_401_" class="st10" d="M534.8,168c-8.6,3.1-16.2,10.6-21.2,18.2c-1.7,2.6,1.9,4.9,4,3.2
			c6.5-5.6,14.4-9.4,20.7-15.1C541,171.8,538.2,166.8,534.8,168z"/>
		<path id="XMLID_402_" class="st10" d="M531.5,235.9c-6-3.8-15.9-2.3-22.3-0.3c-2.4,0.7-2.5,4.4,0,5.1c3.3,0.9,6.8,0.8,10.2,0.8
			c3.5,0,7.1,0.4,10.6,0.3C533,241.7,534.1,237.6,531.5,235.9z"/>
		<path id="XMLID_403_" class="st10" d="M526.8,287.2c-1.9-3-5.2-4.2-8.3-5.5c-3.4-1.5-6.8-2.8-10.4-3.9c-3.3-0.9-5.6,4.2-2.4,5.9
			c3.1,1.6,6.2,3.3,9.3,4.9c2.8,1.5,6,3.6,9.2,3.2C526.3,291.7,528.2,289.3,526.8,287.2z"/>
		<path id="XMLID_404_" class="st10" d="M321.4,335.9c-2.7,1.5-4.7,4.6-6.6,7c-2.1,2.6-4.2,5.2-6.2,7.8c-1.9,2.4,1.2,5.8,3.4,3.5
			c2.3-2.4,4.6-4.8,6.9-7.1c2.2-2.2,5.1-4.3,6.6-7.1C326.9,337.4,324,334.5,321.4,335.9z"/>
		<path id="XMLID_405_" class="st10" d="M370.1,337.9c-0.3-2.4-4.4-2.4-4.7,0c-1,7.4-2.6,15,0.3,22.2c1.5,3.7,7.4,1.7,7.2-2
			C372.6,351.3,371,344.5,370.1,337.9z"/>
		<path id="XMLID_406_" class="st10" d="M454.1,338.5c-0.7-2.8-2.8-4.9-4.6-7c-1.6-1.9-3-4.1-4.6-6c-1-1.2-2.9-1.3-4.1-0.5
			c-1.4,0.8-1.8,2.4-1.6,3.9c0.4,2.7,2.1,5.3,3.6,7.4c1.7,2.4,3.3,5.1,5.8,6.6C451.5,344.5,454.9,341.7,454.1,338.5z"/>
		<path id="XMLID_407_" class="st7" d="M337.6,61.1c-3.2-4.7-8.7-10.8-14.7-10.9c-3.6-0.1-4.8,5-1.8,6.9c2,1.3,3.7,2.5,5.3,4.3
			c1.8,2,3.5,3.9,5.9,5.2C335.5,68.1,340,64.7,337.6,61.1z"/>
		<path id="XMLID_408_" class="st10" d="M381.9,49.9c-0.3-3.9-1.2-8-4-10.9c-1.6-1.6-4.2-0.4-4.2,1.8c-0.1,3.6,0.3,7.2,0.2,10.9
			c-0.1,3.5-0.4,6.8,2.6,9.1c0.7,0.6,2.2,0.6,2.9,0C382.7,58.3,382.3,53.8,381.9,49.9z"/>
		<path id="XMLID_409_" class="st2" d="M433,43c-2.4,2.5-4,6.1-6.2,8.8c-2.2,2.8-4.5,5.5-6.5,8.5c-1.9,2.7,2.4,6.2,4.5,3.6
			c2.6-3.1,5.6-5.8,8.2-8.8c2.3-2.7,5.3-6,5.2-9.9C438.2,42.5,434.9,41,433,43z"/>
	</g>
</g>
</svg>
