<?xml version="1.0" encoding="UTF-8" standalone="no"?>
<svg width="300px" height="248px" viewBox="0 0 300 248" version="1.1" xmlns="http://www.w3.org/2000/svg" xmlns:xlink="http://www.w3.org/1999/xlink">
    <!-- Generator: Sketch 50.2 (55047) - http://www.bohemiancoding.com/sketch -->
    <title>Compu</title>
    <desc>Created with Sketch.</desc>
    <defs></defs>
    <g id="index" stroke="none" stroke-width="1" fill="none" fill-rule="evenodd">
        <g id="Desktop-HD" transform="translate(-582.000000, -137.000000)">
            <g id="Compu" transform="translate(582.000000, 137.000000)">
                <g id="Group-23">
                    <g id="Group-20">
                        <g id="Group-19" transform="translate(0.000000, 172.415351)">
                            <rect id="Rectangle-11" fill="#FFFFFF" x="0" y="0" width="217.667674" height="75.5428083" rx="10"></rect>
                            <g id="Group-17" transform="translate(180.012085, 6.221172)">
                                <ellipse id="Oval-8" fill="#F7B265" cx="3.21450151" cy="3.11058622" rx="3.21450151" ry="3.11058622"></ellipse>
                                <ellipse id="Oval-8" fill="#45AB9A" cx="13.3172205" cy="3.11058622" rx="3.21450151" ry="3.11058622"></ellipse>
                                <ellipse id="Oval-8" fill="#D8D8D8" cx="22.5015106" cy="3.11058622" rx="3.21450151" ry="3.11058622"></ellipse>
                            </g>
                            <g id="Group-15" transform="translate(21.123867, 13.331084)" fill="#C8C8C8">
                                <g id="Group-14">
                                    <g id="Group-12">
                                        <rect id="Rectangle-11" x="0" y="0" width="11.9854985" height="5.33243353" rx="2.66621676"></rect>
                                        <rect id="Rectangle-11" x="13.583565" y="0" width="11.9854985" height="5.33243353" rx="2.66621676"></rect>
                                        <rect id="Rectangle-11" x="27.1671299" y="0" width="11.9854985" height="5.33243353" rx="2.66621676"></rect>
                                    </g>
                                    <g id="Group-12" transform="translate(40.750695, 0.000000)">
                                        <rect id="Rectangle-11" x="0" y="0" width="11.9854985" height="5.33243353" rx="2.66621676"></rect>
                                        <rect id="Rectangle-11" x="13.583565" y="0" width="11.9854985" height="5.33243353" rx="2.66621676"></rect>
                                        <rect id="Rectangle-11" x="27.1671299" y="0" width="11.9854985" height="5.33243353" rx="2.66621676"></rect>
                                    </g>
                                </g>
                                <g id="Group-14" transform="translate(67.963746, 0.000000)">
                                    <g id="Group-12">
                                        <rect id="Rectangle-11" x="0" y="0" width="11.9854985" height="5.33243353" rx="2.66621676"></rect>
                                        <rect id="Rectangle-11" x="13.583565" y="0" width="11.9854985" height="5.33243353" rx="2.66621676"></rect>
                                        <rect id="Rectangle-11" x="27.1671299" y="0" width="11.9854985" height="5.33243353" rx="2.66621676"></rect>
                                    </g>
                                    <g id="Group-12" transform="translate(40.750695, 0.000000)">
                                        <rect id="Rectangle-11" x="0" y="0" width="11.9854985" height="5.33243353" rx="2.66621676"></rect>
                                        <rect id="Rectangle-11" x="13.583565" y="0" width="11.9854985" height="5.33243353" rx="2.66621676"></rect>
                                        <rect id="Rectangle-11" x="27.1671299" y="0" width="11.9854985" height="5.33243353" rx="2.66621676"></rect>
                                    </g>
                                </g>
                            </g>
                            <g id="Group-15" transform="translate(20.205438, 25.773429)" fill="#C8C8C8">
                                <g id="Group-14">
                                    <g id="Group-12">
                                        <rect id="Rectangle-11" x="0" y="0" width="12.6664927" height="9.77612813" rx="3"></rect>
                                        <rect id="Rectangle-11" x="14.3553584" y="0" width="12.6664927" height="9.77612813" rx="3"></rect>
                                        <rect id="Rectangle-11" x="28.7107168" y="0" width="12.6664927" height="9.77612813" rx="3"></rect>
                                    </g>
                                    <g id="Group-12" transform="translate(43.066075, 0.000000)">
                                        <rect id="Rectangle-11" x="0" y="0" width="12.6664927" height="9.77612813" rx="3"></rect>
                                        <rect id="Rectangle-11" x="14.3553584" y="0" width="12.6664927" height="9.77612813" rx="3"></rect>
                                        <rect id="Rectangle-11" x="28.7107168" y="0" width="12.6664927" height="9.77612813" rx="3"></rect>
                                    </g>
                                </g>
                                <g id="Group-14" transform="translate(72.555891, 0.000000)">
                                    <g id="Group-12">
                                        <rect id="Rectangle-11" x="0" y="0" width="12.6664927" height="9.77612813" rx="3"></rect>
                                        <rect id="Rectangle-11" x="14.3553584" y="0" width="12.6664927" height="9.77612813" rx="3"></rect>
                                        <rect id="Rectangle-11" x="28.7107168" y="0" width="12.6664927" height="9.77612813" rx="3"></rect>
                                    </g>
                                    <g id="Group-12" transform="translate(43.066075, 0.000000)">
                                        <rect id="Rectangle-11" x="0" y="0" width="12.6664927" height="9.77612813" rx="3"></rect>
                                        <rect id="Rectangle-11" x="14.3553584" y="0" width="12.6664927" height="9.77612813" rx="3"></rect>
                                        <rect id="Rectangle-11" x="28.7107168" y="0" width="12.6664927" height="9.77612813" rx="3"></rect>
                                    </g>
                                </g>
                            </g>
                            <g id="Group-16" transform="translate(9.184290, 39.104513)" fill="#C8C8C8">
                                <g id="Group-15">
                                    <g id="Group-14">
                                        <g id="Group-12">
                                            <rect id="Rectangle-11" x="0" y="0" width="12.6664927" height="9.77612813" rx="3"></rect>
                                            <rect id="Rectangle-11" x="14.3553584" y="0" width="12.6664927" height="9.77612813" rx="3"></rect>
                                            <rect id="Rectangle-11" x="28.7107168" y="0" width="12.6664927" height="9.77612813" rx="3"></rect>
                                        </g>
                                        <g id="Group-12" transform="translate(43.066075, 0.000000)">
                                            <rect id="Rectangle-11" x="0" y="0" width="12.6664927" height="9.77612813" rx="3"></rect>
                                            <rect id="Rectangle-11" x="14.3553584" y="0" width="12.6664927" height="9.77612813" rx="3"></rect>
                                            <rect id="Rectangle-11" x="28.7107168" y="0" width="12.6664927" height="9.77612813" rx="3"></rect>
                                        </g>
                                    </g>
                                    <g id="Group-14" transform="translate(72.555891, 0.000000)">
                                        <g id="Group-12">
                                            <rect id="Rectangle-11" x="0" y="0" width="12.6664927" height="9.77612813" rx="3"></rect>
                                            <rect id="Rectangle-11" x="14.3553584" y="0" width="12.6664927" height="9.77612813" rx="3"></rect>
                                            <rect id="Rectangle-11" x="28.7107168" y="0" width="12.6664927" height="9.77612813" rx="3"></rect>
                                        </g>
                                        <g id="Group-12" transform="translate(43.066075, 0.000000)">
                                            <rect id="Rectangle-11" x="0" y="0" width="12.6664927" height="9.77612813" rx="3"></rect>
                                            <rect id="Rectangle-11" x="14.3553584" y="0" width="12.6664927" height="9.77612813" rx="3"></rect>
                                            <rect id="Rectangle-11" x="28.7107168" y="0" width="12.6664927" height="9.77612813" rx="3"></rect>
                                        </g>
                                    </g>
                                </g>
                                <g id="Group-15" transform="translate(28.471299, 0.000000)">
                                    <g id="Group-14">
                                        <g id="Group-12">
                                            <rect id="Rectangle-11" x="0" y="0" width="12.6664927" height="9.77612813" rx="3"></rect>
                                            <rect id="Rectangle-11" x="14.3553584" y="0" width="12.6664927" height="9.77612813" rx="3"></rect>
                                            <rect id="Rectangle-11" x="28.7107168" y="0" width="12.6664927" height="9.77612813" rx="3"></rect>
                                        </g>
                                        <g id="Group-12" transform="translate(43.066075, 0.000000)">
                                            <rect id="Rectangle-11" x="0" y="0" width="12.6664927" height="9.77612813" rx="3"></rect>
                                            <rect id="Rectangle-11" x="14.3553584" y="0" width="12.6664927" height="9.77612813" rx="3"></rect>
                                            <rect id="Rectangle-11" x="28.7107168" y="0" width="12.6664927" height="9.77612813" rx="3"></rect>
                                        </g>
                                    </g>
                                    <g id="Group-14" transform="translate(72.555891, 0.000000)">
                                        <g id="Group-12">
                                            <rect id="Rectangle-11" x="0" y="0" width="12.6664927" height="9.77612813" rx="3"></rect>
                                            <rect id="Rectangle-11" x="14.3553584" y="0" width="12.6664927" height="9.77612813" rx="3"></rect>
                                            <rect id="Rectangle-11" x="28.7107168" y="0" width="12.6664927" height="9.77612813" rx="3"></rect>
                                        </g>
                                        <g id="Group-12" transform="translate(43.066075, 0.000000)">
                                            <rect id="Rectangle-11" x="0" y="0" width="12.6664927" height="9.77612813" rx="3"></rect>
                                            <rect id="Rectangle-11" x="14.3553584" y="0" width="12.6664927" height="9.77612813" rx="3"></rect>
                                            <rect id="Rectangle-11" x="28.7107168" y="0" width="12.6664927" height="9.77612813" rx="3"></rect>
                                        </g>
                                    </g>
                                </g>
                            </g>
                            <g id="Group-16" transform="translate(9.184290, 50.658119)" fill="#C8C8C8">
                                <g id="Group-15">
                                    <g id="Group-14">
                                        <g id="Group-12">
                                            <rect id="Rectangle-11" x="0" y="0" width="12.6664927" height="9.77612813" rx="3"></rect>
                                            <rect id="Rectangle-11" x="14.3553584" y="0" width="12.6664927" height="9.77612813" rx="3"></rect>
                                            <rect id="Rectangle-11" x="28.7107168" y="0" width="12.6664927" height="9.77612813" rx="3"></rect>
                                        </g>
                                        <g id="Group-12" transform="translate(43.066075, 0.000000)">
                                            <rect id="Rectangle-11" x="0" y="0" width="12.6664927" height="9.77612813" rx="3"></rect>
                                            <rect id="Rectangle-11" x="14.3553584" y="0" width="12.6664927" height="9.77612813" rx="3"></rect>
                                            <rect id="Rectangle-11" x="28.7107168" y="0" width="12.6664927" height="9.77612813" rx="3"></rect>
                                        </g>
                                    </g>
                                    <g id="Group-14" transform="translate(72.555891, 0.000000)">
                                        <g id="Group-12">
                                            <rect id="Rectangle-11" x="0" y="0" width="12.6664927" height="9.77612813" rx="3"></rect>
                                            <rect id="Rectangle-11" x="14.3553584" y="0" width="12.6664927" height="9.77612813" rx="3"></rect>
                                            <rect id="Rectangle-11" x="28.7107168" y="0" width="12.6664927" height="9.77612813" rx="3"></rect>
                                        </g>
                                        <g id="Group-12" transform="translate(43.066075, 0.000000)">
                                            <rect id="Rectangle-11" x="0" y="0" width="12.6664927" height="9.77612813" rx="3"></rect>
                                            <rect id="Rectangle-11" x="14.3553584" y="0" width="12.6664927" height="9.77612813" rx="3"></rect>
                                            <rect id="Rectangle-11" x="28.7107168" y="0" width="12.6664927" height="9.77612813" rx="3"></rect>
                                        </g>
                                    </g>
                                </g>
                                <g id="Group-15" transform="translate(28.471299, 0.000000)">
                                    <g id="Group-14">
                                        <g id="Group-12">
                                            <rect id="Rectangle-11" x="0" y="0" width="12.6664927" height="9.77612813" rx="3"></rect>
                                            <rect id="Rectangle-11" x="14.3553584" y="0" width="12.6664927" height="9.77612813" rx="3"></rect>
                                            <rect id="Rectangle-11" x="28.7107168" y="0" width="12.6664927" height="9.77612813" rx="3"></rect>
                                        </g>
                                        <g id="Group-12" transform="translate(30.208069, 0.000000)">
                                            <rect id="Rectangle-11" x="0" y="0" width="67.9637462" height="9.77612813" rx="3"></rect>
                                            <rect id="Rectangle-11" x="27.2133645" y="0" width="12.6664927" height="9.77612813" rx="3"></rect>
                                            <rect id="Rectangle-11" x="41.5687229" y="0" width="12.6664927" height="9.77612813" rx="3"></rect>
                                        </g>
                                    </g>
                                    <g id="Group-14" transform="translate(72.555891, 0.000000)">
                                        <g id="Group-12">
                                            <rect id="Rectangle-11" x="0" y="0" width="12.6664927" height="9.77612813" rx="3"></rect>
                                            <rect id="Rectangle-11" x="14.3553584" y="0" width="12.6664927" height="9.77612813" rx="3"></rect>
                                            <rect id="Rectangle-11" x="28.7107168" y="0" width="12.6664927" height="9.77612813" rx="3"></rect>
                                        </g>
                                        <g id="Group-12" transform="translate(43.066075, 0.000000)">
                                            <rect id="Rectangle-11" x="0" y="0" width="12.6664927" height="9.77612813" rx="3"></rect>
                                            <rect id="Rectangle-11" x="14.3553584" y="0" width="12.6664927" height="9.77612813" rx="3"></rect>
                                            <rect id="Rectangle-11" x="28.7107168" y="0" width="12.6664927" height="9.77612813" rx="3"></rect>
                                        </g>
                                    </g>
                                </g>
                            </g>
                            <rect id="Rectangle-11" fill="#C8C8C8" x="180.930514" y="25.7734287" width="24.7975831" height="11.553606" rx="3"></rect>
                            <rect id="Rectangle-11" fill="#C8C8C8" x="195.625378" y="39.1045125" width="10.102719" height="9.77612813" rx="3"></rect>
                            <rect id="Rectangle-11" fill="#C8C8C8" x="198.380665" y="44.4369461" width="7.34743202" height="15.9973006" rx="3"></rect>
                        </g>
                        <g id="Group-18" transform="translate(270.363528, 202.724685) rotate(-16.000000) translate(-270.363528, -202.724685) translate(246.863528, 164.724685)">
                            <rect id="Rectangle-10" fill="#FFFFFF" x="0" y="0" width="46.8398792" height="75.5428083" rx="16"></rect>
                            <rect id="Rectangle-12" fill="#D8D8D8" x="21.1238671" y="11.553606" width="5.51057402" height="18.6635173" rx="2.75528701"></rect>
                        </g>
                        <path d="M67.6163142,133.310838 L153.725076,133.310838 C157.591069,133.310838 160.725076,136.444845 160.725076,140.310838 L160.725076,168.860395 L60.6163142,168.860395 L60.6163142,140.310838 C60.6163142,136.444845 63.750321,133.310838 67.6163142,133.310838 Z" id="Rectangle-13" fill="#FFFFFF"></path>
                        <path d="M48.1136074,162.639223 L170.472495,162.639223 C172.190425,162.639223 173.583082,164.031879 173.583082,165.749809 L173.583082,168.860395 L45.0030211,168.860395 L45.0030211,165.749809 C45.0030211,164.031879 46.395678,162.639223 48.1136074,162.639223 Z" id="Rectangle-13" fill="#FFFFFF"></path>
                        <rect id="Rectangle-13" fill="#C8C8C8" x="0" y="17.7747784" width="222.259819" height="137.754533" rx="7"></rect>
                        <path d="M8.9735982,5.25634312e-16 L213.286221,1.25072253e-15 C216.406536,6.77529853e-16 217.538038,0.324889639 218.678779,0.934964463 C219.819519,1.54503929 220.714779,2.4402993 221.324854,3.58104004 C221.934929,4.72178078 222.259819,5.85328261 222.259819,8.9735982 L222.259819,137.754533 L0,137.754533 L-6.46482348e-16,8.9735982 C-1.0286108e-15,5.85328261 0.324889639,4.72178078 0.934964463,3.58104004 C1.54503929,2.4402993 2.4402993,1.54503929 3.58104004,0.934964463 C4.72178078,0.324889639 5.85328261,1.09882699e-15 8.9735982,5.25634312e-16 Z" id="Rectangle-13" fill="#FFFFFF"></path>
                        <rect id="Rectangle-13" fill="#47C9B0" x="9.18429003" y="11.553606" width="202.97281" height="117.313538"></rect>
                        <g id="Group-17" transform="translate(102.864048, 142.198227)">
                            <ellipse id="Oval-8" fill="#F7B265" cx="3.21450151" cy="3.11058622" rx="3.21450151" ry="3.11058622"></ellipse>
                            <ellipse id="Oval-8" fill="#45AB9A" cx="13.3172205" cy="3.11058622" rx="3.21450151" ry="3.11058622"></ellipse>
                            <ellipse id="Oval-8" fill="#D8D8D8" cx="22.5015106" cy="3.11058622" rx="3.21450151" ry="3.11058622"></ellipse>
                        </g>
                    </g>
                </g>
            </g>
        </g>
    </g>
</svg>