<?xml version="1.0" encoding="UTF-8" standalone="no"?>
<svg width="422px" height="292px" viewBox="0 0 422 292" version="1.1" xmlns="http://www.w3.org/2000/svg" xmlns:xlink="http://www.w3.org/1999/xlink">
    <!-- Generator: Sketch 50.2 (55047) - http://www.bohemiancoding.com/sketch -->
    <title>Group 25</title>
    <desc>Created with Sketch.</desc>
    <defs></defs>
    <g id="index" stroke="none" stroke-width="1" fill="none" fill-rule="evenodd">
        <g id="Desktop-HD" transform="translate(-590.000000, -149.000000)">
            <g id="Group-25" transform="translate(587.000000, 128.000000)">
                <g id="cloud" transform="translate(132.000000, 10.000000)" fill-rule="nonzero">
                    <path d="M257.847,71.65 C253.601,71.65 249.531,72.375 245.72,73.666 C241.481,46.937 218.345,26.504 190.426,26.504 C181.34,26.504 172.761,28.682 165.169,32.53 C153.068,13.284 131.648,0.488 107.235,0.488 C75.865,0.488 49.485,21.634 41.421,50.428 C18.356,54.821 0.913,75.062 0.913,99.399 C0.913,126.95 23.249,149.294 50.8,149.294 C53.864,149.294 56.856,148.979 59.777,148.449 C60.915,148.618 62.056,148.734 63.239,148.734 L253.353,148.734 C255.824,148.734 258.208,148.34 260.453,147.604 C280.244,146.271 295.9,129.83 295.9,109.69 C295.9,88.684 278.862,71.65 257.847,71.65 Z" id="Shape"></path>
                    <path d="M255.985,80.45 C251.862,80.45 247.913,81.156 244.214,82.402 C240.099,56.469 217.654,36.641 190.564,36.641 C181.748,36.641 173.428,38.759 166.058,42.491 C154.317,23.819 133.536,11.403 109.848,11.403 C79.409,11.403 53.814,31.922 45.982,59.86 C23.601,64.121 6.675,83.766 6.675,107.378 C6.675,134.107 28.35,155.794 55.083,155.794 C58.06,155.794 60.963,155.486 63.794,154.972 C64.894,155.133 66.009,155.242 67.154,155.242 L251.621,155.242 C254.02,155.242 256.337,154.867 258.507,154.157 C277.712,152.858 292.907,136.908 292.907,117.366 C292.908,96.978 276.376,80.45 255.985,80.45 Z" id="Shape" fill="#F7D565"></path>
                </g>
                <g id="Avion" transform="translate(165.000000, 0.000000)">
                    <g id="Group-13" transform="translate(84.000000, 88.000000) rotate(-22.000000) translate(-84.000000, -88.000000) translate(22.000000, 19.000000)">
                        <g id="Group-12">
                            <g>
                                <g id="Group-11">
                                    <g id="Group-8" transform="translate(61.927680, 68.797162) scale(-1, 1) rotate(-9.000000) translate(-61.927680, -68.797162) translate(9.011929, 7.463829)">
                                        <polygon id="Rectangle-4" fill="#7DD8C9" transform="translate(49.138214, 74.190238) scale(1, -1) translate(-49.138214, -74.190238) " points="97.8705907 51.7755438 91.7531336 84.3399395 0.405838265 96.6049326 76.265997 62.6977252"></polygon>
                                        <polygon id="Rectangle-4" fill="#3390A6" transform="translate(52.715006, 70.749451) rotate(45.000000) translate(-52.715006, -70.749451) " points="82.3247283 47.4814076 103.023777 81.1436605 2.40623499 94.0174951"></polygon>
                                        <polygon id="Rectangle-4" fill="#4BCBB6" transform="translate(53.138816, 52.320806) rotate(45.000000) translate(-53.138816, -52.320806) " points="90.7472176 15.805321 88.7399295 33.4664178 15.5304138 88.8362919"></polygon>
                                    </g>
                                </g>
                            </g>
                        </g>
                    </g>
                </g>
                <g id="compose" transform="translate(287.000000, 80.000000)" fill-rule="nonzero">
                    <circle id="Oval" fill="#3390A6" cx="29" cy="29" r="29"></circle>
                    <path d="M29,0 C21.243,0 14.204,3.051 9,8.011 L9,26 L28.951,50.993 C28.971,51.009 29,50.995 29,50.97 C29,50.995 29.029,51.01 29.049,50.993 L49,26 L49,8.011 C43.796,3.051 36.757,0 29,0 Z" id="Shape" fill="#EBD6BD"></path>
                    <path d="M29,35 C25.252,35 21.907,36.72 19.706,39.412 L28.951,50.993 C28.971,51.009 29,50.995 29,50.97 C29,50.995 29.029,51.01 29.049,50.993 L38.294,39.412 C36.093,36.72 32.748,35 29,35 Z" id="Shape" fill="#4C4C4C"></path>
                    <path d="M29,0 C25.484,0 22.117,0.633 19,1.78 L19,18 L28.951,25.961 C28.971,25.977 29,25.962 29,25.937 C29,25.962 29.029,25.977 29.049,25.961 L39,18 L39,1.78 C35.883,0.633 32.516,0 29,0 Z" id="Shape" fill="#EBBA16"></path>
                    <path d="M9.432,25.654 L19,18 L19,1.78 C15.241,3.164 11.845,5.3 9,8.011 L9,25.446 C9,25.669 9.258,25.793 9.432,25.654 Z" id="Shape" fill="#ED8A19"></path>
                    <path d="M39,18 L48.568,25.654 C48.742,25.793 49,25.669 49,25.446 L49,8.011 C46.155,5.3 42.759,3.164 39,1.78 L39,18 Z" id="Shape" fill="#ED8A19"></path>
                </g>
                <g id="man" transform="translate(0.000000, 117.000000)" fill-rule="nonzero">
                    <path d="M111.976506,23.4666974 L111.006651,23 C106.997377,11.0602289 95.7822011,3.00691404 83.1528937,3 L27.4114714,3 L34.0991165,23 C26.3248639,26.8733963 22.3656824,35.66997 24.6359984,44.0332642 L30.7552939,63 L37.4429391,63 L37.4429391,46.3333333 C37.4429391,46.3333333 57.5058746,46.3333333 67.5373424,43 L97.6317457,33 L111.007036,56.3333333 L111.007036,63 L117.694681,63 L121.640376,43.2999923 C123.258728,35.2731812 119.306097,27.1599447 111.976506,23.4666974 Z" id="Shape" fill="#59564E"></path>
                    <path d="M33.850957,23 C26.2437098,26.8833833 22.387754,35.6864869 24.6370931,44.0332642 L30.5719777,63 L37.1299364,63 L37.1299364,46.3333333 C37.1299364,46.3333333 44.8354245,46.3333333 53,45.5332258 C44.6124932,40.0565414 37.9630949,32.2298533 33.850957,23 Z" id="Shape" fill="#59564E"></path>
                    <path d="M125.632663,140.11426 L102.465972,137 L100.866136,140.71697 C94.2493861,156.176756 76.4095891,163.32246 61.0196721,156.67567 C53.8862885,153.59498 48.2029357,147.882738 45.1330955,140.71697 L43.5332602,137 L20.3665684,140.11426 C10.4364497,141.440068 3.01344399,149.942062 3,160.004081 L3,196 L143,196 L143,160.004081 C142.986172,149.942062 135.562782,141.440068 125.632663,140.11426 Z" id="Shape" fill="#F7D565"></path>
                    <path d="M73.5001923,158.999831 C85.6403632,159.006311 96.6161236,151.83567 101.398359,140.774596 L103,137.102944 L99.3291077,136.606682 C95.9854654,136.173311 93.4924427,133.335623 93.5224374,129.991382 L93.5224374,116 L53.4775626,116 L53.4775626,130.189582 C53.5075573,133.533442 51.0149191,136.371511 47.6708923,136.804882 L44,137.301144 L45.6016412,140.972796 C50.4442504,151.95802 61.4065516,159.039852 73.5001923,158.999831 Z" id="Shape" fill="#FEDAC6"></path>
                    <path d="M94,132.898714 C93.732117,132.172523 93.5947015,131.401516 93.5981755,130.627335 L93.5981755,116 L53.4018245,116 L53.4018245,130.764958 C53.4052985,131.539535 53.267883,132.310147 53,133.036338 C65.9097234,139.702938 81.1338944,139.651378 94,132.898714 Z" id="Shape" fill="#F5C4B0"></path>
                    <path d="M16,141 C8.2292867,143.835614 3.02284513,151.412847 3,159.926261 L3,196 L16,196 L16,141 Z" id="Shape" fill="#F7D565"></path>
                    <path d="M110.25,59 L107,59 L107,79 L110.25,79 C115.635083,79 120,74.523162 120,69 C120,63.476838 115.635083,59 110.25,59 Z" id="Shape" fill="#FEDAC6"></path>
                    <path d="M27,69 C27,74.523162 31.364917,79 36.75,79 L40,79 L40,59 L36.75,59 C31.364917,59 27,63.476838 27,69 Z" id="Shape" fill="#F5C4B0"></path>
                    <path d="M110.93217,92.6384087 C110.975969,97.5665228 109.206571,102.336637 105.954212,106.047886 L91.4234434,122.440809 C88.8738049,125.333859 85.1974108,126.996523 81.3326426,127 L66.6003215,127 C62.7355533,126.996523 59.0591592,125.333859 56.5095207,122.440809 L41.9787521,105.880228 C38.7260057,102.16898 36.9569953,97.3988657 37.0007942,92.4707517 L37.0007942,46.4094768 C37.0007942,46.4094768 57.1823958,46.4094768 67.2731966,43.0571076 L97.545599,33 L111,56.4665845 L110.93217,92.6384087 Z" id="Shape" fill="#FEDAC6"></path>
                    <path d="M50,46 C43.0128,46.5643882 37.0007672,46.5643882 37.0007672,46.5643882 L37.0007672,92.3540659 C36.95845,97.2353545 38.6679885,101.960145 41.8103186,105.63613 L49.9996255,115 L49.9996255,46 L50,46 Z" id="Shape"></path>
                    <g id="Group" transform="translate(36.000000, 56.000000)" fill="#FFFFFF">
                        <path d="M0.208895833,0.198113208 L30.3107083,0.198113208 L30.3107083,10.0222642 C30.3107083,15.4483019 25.8186771,19.8464151 20.2767708,19.8464151 L10.2428333,19.8464151 C4.70092708,19.8464151 0.208895833,15.4483019 0.208895833,10.0222642 L0.208895833,0.198113208 Z" id="Shape"></path>
                        <path d="M43.6892917,0.198113208 L73.7911042,0.198113208 L73.7911042,10.0222642 C73.7911042,15.4483019 69.2990729,19.8464151 63.7571667,19.8464151 L53.7232292,19.8464151 C48.1813229,19.8464151 43.6892917,15.4483019 43.6892917,10.0222642 L43.6892917,0.198113208 Z" id="Shape"></path>
                    </g>
                    <path d="M6.70584565,196 L-3.55271368e-15,196 L8.54849955e-06,160.14475 C-0.0100370706,148.337026 8.83474415,138.327061 20.5734364,136.870722 L47.3631706,133.258616 C49.0531528,133.041034 50.3069234,131.601284 50.2937868,129.910773 L50.2937868,119 L57,119 L56.9996239,129.880296 C57.0432837,134.922122 53.2811993,139.240985 48.2452532,139.893734 L21.4354278,143.509311 C13.0129489,144.557104 6.6961864,151.701457 6.70275469,160.141277 L6.70275469,196 L6.70584565,196 Z" id="Shape"></path>
                    <path d="M147,196 L140.294162,196 L140.294162,160.14475 C140.30073,151.70493 133.983967,144.557104 125.598192,143.512784 L98.7381342,139.893734 C93.7188012,139.240985 89.9567163,134.922122 90.0003761,129.850205 L90,119 L96.7062142,119 L96.7062142,129.880296 C96.6896003,131.600898 97.943371,133.037176 99.6233079,133.25823 L126.459797,136.873808 C138.164877,138.330147 147.009659,148.33664 146.999614,160.147836 L147,196 Z" id="Shape"></path>
                    <path d="M110.4,84 L107,84 L107,77.25 L110.4,77.25 C114.150265,77.25 117.2,74.2226896 117.2,70.5 C117.2,66.7773104 114.150265,63.75 110.4,63.75 L107,63.75 L107,57 L110.4,57 C117.90053,57 124,63.0546209 124,70.5 C124,77.9453791 117.900138,84 110.4,84 Z" id="Shape"></path>
                    <path d="M41,84 L37.6,84 C30.0994699,84 24,77.9453791 24,70.5 C24,63.0546209 30.0994699,57 37.6,57 L41,57 L41,63.75 L37.6,63.75 C33.849735,63.75 30.8,66.7773104 30.8,70.5 C30.8,74.2226896 33.849735,77.25 37.6,77.25 L41,77.25 L41,84 Z" id="Shape"></path>
                    <path d="M73.014951,163 C73.0015334,163 72.9884992,163 72.9785318,163 C59.5318014,163 47.4256805,154.994234 42.1291807,142.598693 L40,137.631943 L46.1145897,135 L48.2437704,139.970209 C52.4921644,149.907553 62.1996027,156.328849 72.9815987,156.328849 C72.9915661,156.328849 73.0015334,156.328849 73.0115008,156.328849 C83.7934968,156.328849 93.5043854,149.907553 97.7562296,139.970209 L99.8854103,135 L106,137.631943 L103.870819,142.602153 C98.571636,154.994234 86.4586146,163 73.014951,163 Z" id="Shape" fill="#3390A6"></path>
                    <path d="M76,87 L65.6002637,87 C64.7994312,87 64.0429397,86.5372133 63.5488983,85.7449915 C63.0575533,84.9527697 62.8831858,83.919388 63.0782258,82.9479866 L68.2780939,57 L73.3194734,58.5874487 L68.9333204,80.4800411 L76,80.4800411 L76,87 Z" id="Shape" fill="#F5C4B0" transform="translate(69.500000, 72.000000) rotate(-5.000000) translate(-69.500000, -72.000000) "></path>
                    <path d="M69.0146969,104 L63,104 L63,97.7844097 L69.0076167,97.7844097 C73.4725192,97.7750985 77.9578759,96.8117464 81.9653138,95 L85,100.569178 C80.0571786,102.800286 74.5306276,103.987466 69.0146969,104 Z" id="Shape" fill="#FFFFFF"></path>
                    <path d="M80.2682743,130 L65.6623304,130 C60.8692209,129.993479 56.3161702,127.929284 53.1596854,124.340632 L38.7573113,107.892292 C34.994342,103.584759 32.9509617,98.0684769 33.0008939,92.3561714 L33.0008939,46.6435339 C33.0008939,44.806052 34.4942515,43.3145844 36.334062,43.3145844 C36.5272613,43.3145844 55.9128714,43.2746892 65.2790045,40.1555732 L95.277517,30.1687247 C96.7873907,29.6727196 98.4374587,30.2983841 99.227156,31.6766874 L112.559828,54.979334 C112.849819,55.4818603 113,56.0545869 113,56.6372874 L112.926638,92.5364671 C112.97657,98.2422513 110.930117,103.751628 107.166764,108.05264 L92.757476,124.347921 C89.6079049,127.929284 85.0513974,129.993095 80.2682743,130 Z M39.6637732,49.9222308 L39.6637732,92.3826404 C39.6272842,96.4937664 41.0868416,100.435338 43.7735794,103.511106 L58.1694239,119.949473 C60.0591666,122.099979 62.7923797,123.338265 65.6657872,123.341717 L80.2617447,123.341717 C83.1247817,123.338265 85.8614517,122.099979 87.7581081,119.942951 L102.160482,103.657644 C104.836849,100.594919 106.296791,96.6537309 106.256845,92.5755952 C106.256845,92.5621689 106.256845,92.5521951 106.256845,92.5391524 L106.323677,57.5088446 L94.7843403,37.3456452 L67.3823035,46.4701431 C59.4161931,49.1235591 45.9168241,49.7657187 39.6637732,49.9222308 Z" id="Shape"></path>
                    <path d="M26.8938588,64 L20.7877297,45.136448 C18.2882917,36.1554597 21.8915032,26.7867175 29.4033487,21.7145927 L23.5489032,4.36614556 C23.2067527,3.35492959 23.3811142,2.24438754 24.0120628,1.37910451 C24.6461043,0.510383277 25.6594109,0 26.7365082,0 L82.6976305,0 C96.359292,0.0133708194 108.494228,8.34109915 113.325315,20.8592423 C121.846988,25.1887136 126.487089,34.6900178 124.571433,44.0522656 L120.61254,63.6382238 L114.033586,62.3385802 L117.992479,42.7457455 C119.327832,36.2181115 116.05324,29.601084 110.024433,26.6404026 L109.068345,26.1498845 C108.29667,25.7521981 107.709408,25.0756347 107.434528,24.2569585 C103.871524,13.7245731 93.9306038,6.6399489 82.6949243,6.6300163 L31.3897543,6.6300163 L36.6302621,22.1592679 C37.1603053,23.727474 36.4388898,25.4381749 34.9427065,26.173952 C28.5883734,29.3034878 25.3408437,36.4809436 27.2228645,43.2473423 L33.288786,61.9783321 L26.8938588,64 Z" id="Shape"></path>
                    <path d="M55.9090909,80 L46.0909091,80 C38.8711475,80 33,73.9453791 33,66.5 L33,56.375 C33,54.5120996 34.4662784,53 36.2727273,53 L65.7272727,53 C67.5337216,53 69,54.5120996 69,56.375 L69,66.5 C69,73.9453791 63.1288525,80 55.9090909,80 Z M39.5454545,59.75 L39.5454545,66.5 C39.5454545,70.2226896 42.4810283,73.25 46.0909091,73.25 L55.9090909,73.25 C59.5189717,73.25 62.4545455,70.2226896 62.4545455,66.5 L62.4545455,59.75 L39.5454545,59.75 Z" id="Shape" fill="#3390A6"></path>
                    <path d="M99.9090909,80 L90.0909091,80 C82.8711475,80 77,73.9453791 77,66.5 L77,56.375 C77,54.5120996 78.4662784,53 80.2727273,53 L109.727273,53 C111.537116,53 113,54.5120996 113,56.375 L113,66.5 C113,73.9453791 107.128475,80 99.9090909,80 Z M83.5454545,59.75 L83.5454545,66.5 C83.5454545,70.2226896 86.4810283,73.25 90.0909091,73.25 L99.9090909,73.25 C103.518972,73.25 106.454545,70.2226896 106.454545,66.5 L106.454545,59.75 L83.5454545,59.75 Z" id="Shape" fill="#3390A6"></path>
                    <rect id="Rectangle-path" fill="#3390A6" x="67" y="53" width="13" height="7"></rect>
                </g>
                <circle id="Oval-9" fill="#F7D565" cx="140" cy="191" r="6"></circle>
                <circle id="Oval-9" fill="#F7D565" cx="165" cy="180" r="11"></circle>
            </g>
        </g>
    </g>
</svg>