<?xml version="1.0" encoding="UTF-8" standalone="no"?>
<svg width="233px" height="234px" viewBox="0 0 233 234" version="1.1" xmlns="http://www.w3.org/2000/svg" xmlns:xlink="http://www.w3.org/1999/xlink">
    <!-- Generator: Sketch 50.2 (55047) - http://www.bohemiancoding.com/sketch -->
    <title>Group 24</title>
    <desc>Created with Sketch.</desc>
    <defs></defs>
    <g id="index" stroke="none" stroke-width="1" fill="none" fill-rule="evenodd">
        <g id="Desktop-HD" transform="translate(-605.000000, -202.000000)">
            <g id="Group-24" transform="translate(601.000000, 200.000000)">
                <g id="Celular">
                    <g id="Group-4" transform="translate(83.000000, 119.000000) rotate(13.000000) translate(-83.000000, -119.000000) translate(24.745342, 10.000000)">
                        <g id="Group-2">
                            <rect id="Rectangle-3" fill="#FFFFFF" x="0" y="0" width="116.509317" height="218" rx="13"></rect>
                            <rect id="Rectangle-3" fill="#F5CE51" x="0" y="15.7263682" width="116.509317" height="169.736318"></rect>
                            <ellipse id="Oval-3" stroke="#45AB9A" stroke-width="2" cx="100.099554" cy="8.67661692" rx="3.82894468" ry="3.7960199"></ellipse>
                            <path d="M46.2208322,9.49004975 L70.8354766,9.49004975" id="Line-2" stroke="#45AB9A" stroke-width="2" stroke-linecap="square"></path>
                            <ellipse id="Oval-4" fill="#C8C8C8" cx="56.340186" cy="201.460199" rx="10.3928499" ry="10.0323383"></ellipse>
                        </g>
                    </g>
                    <ellipse id="Oval-7" fill="#FFFFFF" cx="81.4534161" cy="110" rx="51.552795" ry="50"></ellipse>
                    <text id="&lt;/&gt;" font-family="HiraKakuStd-W8, Hiragino Kaku Gothic Std" font-size="48" font-weight="600" fill="#4BCBB6">
                        <tspan x="41.242236" y="127">&lt;/&gt;</tspan>
                    </text>
                </g>
                <g id="Group-21" transform="translate(188.000000, 119.500000) rotate(12.000000) translate(-188.000000, -119.500000) translate(144.000000, 76.000000)">
                    <path d="M21.4589844,5.68434189e-14 L71.1523438,7.86948373e-14 C81.9420573,1.12434896 87.3369141,6.41796875 87.3369141,15.8808594 C87.3369141,25.34375 87.3369141,37.8574219 87.3369141,53.421875 C87.6813151,65.6503906 82.2864583,71.7646484 71.1523438,71.7646484 C60.0182292,71.7646484 43.453776,71.7646484 21.4589844,71.7646484 L0.07421875,86.0195313 L9,68 C9,39.6341146 9,21.4231771 9,13.3671875 C9,5.31119792 13.1529948,0.85546875 21.4589844,5.68434189e-14 Z" id="Rectangle-15" fill="#F5CE51"></path>
                    <g id="Overrides/Activity-View/More-Icon" transform="translate(17.000000, 4.000000)">
                        <rect id="App-Icon" fill="#FFFFFF" x="0" y="0" width="62" height="62" rx="13.5"></rect>
                        <path d="M20,34.5 C18.0670034,34.5 16.5,32.9329966 16.5,31 C16.5,29.0670034 18.0670034,27.5 20,27.5 C21.9329966,27.5 23.5,29.0670034 23.5,31 C23.5,32.9329966 21.9329966,34.5 20,34.5 Z M31,34.5 C29.0670034,34.5 27.5,32.9329966 27.5,31 C27.5,29.0670034 29.0670034,27.5 31,27.5 C32.9329966,27.5 34.5,29.0670034 34.5,31 C34.5,32.9329966 32.9329966,34.5 31,34.5 Z M42,34.5 C40.0670034,34.5 38.5,32.9329966 38.5,31 C38.5,29.0670034 40.0670034,27.5 42,27.5 C43.9329966,27.5 45.5,29.0670034 45.5,31 C45.5,32.9329966 43.9329966,34.5 42,34.5 Z" id="Dot" fill="#686872"></path>
                    </g>
                </g>
            </g>
        </g>
    </g>
</svg>