<?xml version="1.0" encoding="UTF-8" standalone="no"?>
<svg width="270px" height="262px" viewBox="0 0 270 262" version="1.1" xmlns="http://www.w3.org/2000/svg" xmlns:xlink="http://www.w3.org/1999/xlink">
    <!-- Generator: Sketch 50.2 (55047) - http://www.bohemiancoding.com/sketch -->
    <title>Group 11</title>
    <desc>Created with Sketch.</desc>
    <defs></defs>
    <g id="index" stroke="none" stroke-width="1" fill="none" fill-rule="evenodd">
        <g id="Desktop-HD" transform="translate(-577.000000, -239.000000)">
            <g id="Group-11" transform="translate(540.000000, 198.000000)">
                <g id="Group-10">
                    <g id="Group-22">
                        <path d="M170.5,211 C247.543723,211 310,187.047234 310,157.5 C310,127.952766 247.543723,104 170.5,104 C93.4562774,104 31,127.952766 31,157.5 C31,187.047234 93.4562774,211 170.5,211 Z" id="Oval-6" stroke="#979797" stroke-width="3" stroke-dasharray="8" transform="translate(170.500000, 157.500000) rotate(45.000000) translate(-170.500000, -157.500000) "></path>
                        <path d="M172,235 C259.26099,235 330,200.525926 330,158 C330,115.474074 259.26099,81 172,81 C84.7390095,81 14,115.474074 14,158 C14,200.525926 84.7390095,235 172,235 Z" id="Oval-6" stroke="#979797" stroke-width="3" stroke-dasharray="8" transform="translate(172.000000, 158.000000) scale(-1, 1) rotate(38.000000) translate(-172.000000, -158.000000) "></path>
                        <g id="Group-9" transform="translate(117.000000, 99.000000)">
                            <g id="Group-8">
                                <path d="M55.3710949,128.630107 C55.3109168,128.753413 55.2506628,128.87671 55.190333,129 L33.822352,129 C5.69110789,84.3137416 -4.89182464,52.2319242 2.07355443,32.7545477 C9.67530243,11.4976848 34.4892234,-0.238106494 55.3710949,0.00366264329 C77.104445,-0.238106494 102.930178,11.4976848 110.841894,32.7545477 C118.091294,52.2319242 107.076832,84.3137416 77.7985087,129 L55.5592276,129 C55.4964377,128.87671 55.4337268,128.753413 55.3710949,128.630107 Z" id="Combined-Shape" fill="#F5CE51"></path>
                                <path d="M51.6312746,45 L51.6312746,45 C52.9394855,45 54,46.0605145 54,47.3687254 L54,121.569293 C54,125.746078 54,128.315699 54,129.278157 C54,130.240614 54,130.240614 54,129.278157 L48,129.278157 L48,122.351171 L49.2238913,47.36841 C49.2453427,46.054167 50.3168565,45 51.6312746,45 Z" id="Rectangle-9" fill="#6F6C6C"></path>
                                <path d="M58.6312746,66 L58.6312746,66 C59.9394855,66 61,67.0605145 61,68.3687254 L61,122.751359 C61,125.847093 61,127.751636 61,128.464987 C61,129.178338 61,129.178338 61,128.464987 L55,128.464987 L55,123.330868 L56.2103974,68.3681512 C56.2393839,67.0519072 57.3147114,66 58.6312746,66 Z" id="Rectangle-9" fill="#6F6C6C"></path>
                                <g id="Group-5" transform="translate(33.000000, 126.000000)" fill="#3390A6">
                                    <path d="M6.8060721,0 C12.855914,0 23.6372233,0 39.15,0 L39.15,12 C23.6372233,12 12.855914,12 6.8060721,12 C-2.2686907,12 -2.2686907,0 6.8060721,0 Z" id="Rectangle-8"></path>
                                    <path d="M12.6560721,0 C18.705914,0 29.4872233,0 45,0 L45,12 C29.4872233,12 18.705914,12 12.6560721,12 C3.5813093,12 3.5813093,0 12.6560721,0 Z" id="Rectangle-8" transform="translate(25.425000, 6.000000) scale(-1, 1) translate(-25.425000, -6.000000) "></path>
                                </g>
                                <g id="Group-5" transform="translate(33.000000, 134.000000)" fill="#4BCBB6">
                                    <path d="M6.8060721,0 C12.855914,0 23.6372233,0 39.15,0 L39.15,12 C23.6372233,12 12.855914,12 6.8060721,12 C-2.2686907,12 -2.2686907,0 6.8060721,0 Z" id="Rectangle-8"></path>
                                    <path d="M12.6560721,0 C18.705914,0 29.4872233,0 45,0 L45,12 C29.4872233,12 18.705914,12 12.6560721,12 C3.5813093,12 3.5813093,0 12.6560721,0 Z" id="Rectangle-8" transform="translate(25.425000, 6.000000) scale(-1, 1) translate(-25.425000, -6.000000) "></path>
                                </g>
                                <g id="Group-5" transform="translate(33.000000, 143.000000)" fill="#3390A6">
                                    <path d="M6.7799952,0 C12.8066576,0 23.5466592,0 39,0 L39,12 C23.5466592,12 12.8066576,12 6.7799952,12 C-2.2599984,12 -2.2599984,0 6.7799952,0 Z" id="Rectangle-8"></path>
                                    <path d="M12.7799952,0 C18.8066576,0 29.5466592,0 45,0 L45,12 C29.5466592,12 18.8066576,12 12.7799952,12 C3.7400016,12 3.7400016,0 12.7799952,0 Z" id="Rectangle-8" transform="translate(25.500000, 6.000000) scale(-1, 1) translate(-25.500000, -6.000000) "></path>
                                </g>
                            </g>
                        </g>
                    </g>
                    <g id="Glyphs/Search" transform="translate(41.000000, 190.000000)" fill="#8E8E93">
                        <path d="M98.1649618,89.8146837 L70.7863904,62.425398 C75.6940383,55.7318525 78.3230461,47.6395159 78.2863904,39.3396837 C78.1927497,17.6743676 60.6694046,0.125531712 39.0042475,0.000397984473 C28.6362486,-0.0465112354 18.6801145,4.05508777 11.3537903,11.3914747 C4.027466,18.7278617 -0.0604637757,28.6896161 0.000676072998,39.0575408 C0.0943168638,60.7248293 17.6192609,78.2752642 39.2863904,78.400398 C47.6200346,78.4365169 55.7419367,75.7768226 62.4399618,70.8182551 L62.4685332,70.7968266 L89.8221046,98.1646837 C91.3010251,99.7162086 93.5047174,100.344229 95.579354,99.8054174 C97.6539906,99.2666054 99.2735856,97.6456237 99.8106219,95.5705268 C100.347658,93.4954298 99.7177518,91.2922759 98.1649618,89.8146837 L98.1649618,89.8146837 Z M39.2578189,70.5575408 C21.9250622,70.4578338 7.90533499,56.4189887 7.8292475,39.0861123 C7.78246601,30.7928467 11.0530789,22.8250437 16.9130348,16.9563676 C22.7729907,11.0876915 30.7359215,7.80523425 39.0292475,7.8396837 C56.3620042,7.93939075 70.3817314,21.9782358 70.4578189,39.3111123 C70.5046004,47.6043778 67.2339875,55.5721808 61.3740316,61.4408569 C55.5140757,67.309533 47.5511449,70.5919903 39.2578189,70.5575408 Z" id="Search"></path>
                    </g>
                </g>
                <g id="Overrides/Tab-Bar/Icons/Active/1" transform="translate(158.000000, 273.000000)" fill="#4BCBB6">
                    <path d="M35.9539643,12.901634 L28.0496227,12.901634 C27.5769371,12.9042304 27.1558005,12.6035912 27.0047097,12.1556962 L24.5699126,4.74681333 C24.4170427,4.30011836 23.9971284,4 23.5249996,4 C23.0528708,4 22.6329566,4.30011836 22.4800867,4.74681333 L20.0452895,12.1556962 C19.8941988,12.6035912 19.4730621,12.9042304 19.0003765,12.901634 L11.096035,12.901634 C10.6263914,12.8910954 10.2046057,13.1875798 10.0555036,13.6330511 C9.90640144,14.0785224 10.0647276,14.5691739 10.4460891,14.8434723 L16.8605548,19.4520883 C17.2395487,19.7212406 17.3995587,20.2055242 17.2555219,20.6474888 L14.8107255,28.0893688 C14.705656,28.4213337 14.7666996,28.7835751 14.9747601,29.0627724 C15.1828205,29.3419697 15.5124902,29.5040285 15.8606381,29.4982515 C16.0928005,29.4971693 16.3186269,29.422419 16.5055844,29.2847693 L22.8750538,24.7091504 C23.2637737,24.4311921 23.7862255,24.4311921 24.1749455,24.7091504 L30.5444149,29.2847693 C30.7313723,29.422419 30.9571988,29.4971693 31.1893612,29.4982515 C31.537509,29.5040285 31.8671787,29.3419697 32.0752392,29.0627724 C32.2832996,28.7835751 32.3443433,28.4213337 32.2392737,28.0893688 L29.7944774,20.6474888 C29.6504405,20.2055242 29.8104506,19.7212406 30.1894445,19.4520883 L36.6039101,14.8434723 C36.9852716,14.5691739 37.1435978,14.0785224 36.9944957,13.6330511 C36.8453935,13.1875798 36.4236078,12.8910954 35.9539643,12.901634 Z" id="Star"></path>
                </g>
                <g id="Overrides/Tab-Bar/Icons/Active/1" transform="translate(188.000000, 273.000000)" fill="#4BCBB6">
                    <path d="M35.9539643,12.901634 L28.0496227,12.901634 C27.5769371,12.9042304 27.1558005,12.6035912 27.0047097,12.1556962 L24.5699126,4.74681333 C24.4170427,4.30011836 23.9971284,4 23.5249996,4 C23.0528708,4 22.6329566,4.30011836 22.4800867,4.74681333 L20.0452895,12.1556962 C19.8941988,12.6035912 19.4730621,12.9042304 19.0003765,12.901634 L11.096035,12.901634 C10.6263914,12.8910954 10.2046057,13.1875798 10.0555036,13.6330511 C9.90640144,14.0785224 10.0647276,14.5691739 10.4460891,14.8434723 L16.8605548,19.4520883 C17.2395487,19.7212406 17.3995587,20.2055242 17.2555219,20.6474888 L14.8107255,28.0893688 C14.705656,28.4213337 14.7666996,28.7835751 14.9747601,29.0627724 C15.1828205,29.3419697 15.5124902,29.5040285 15.8606381,29.4982515 C16.0928005,29.4971693 16.3186269,29.422419 16.5055844,29.2847693 L22.8750538,24.7091504 C23.2637737,24.4311921 23.7862255,24.4311921 24.1749455,24.7091504 L30.5444149,29.2847693 C30.7313723,29.422419 30.9571988,29.4971693 31.1893612,29.4982515 C31.537509,29.5040285 31.8671787,29.3419697 32.0752392,29.0627724 C32.2832996,28.7835751 32.3443433,28.4213337 32.2392737,28.0893688 L29.7944774,20.6474888 C29.6504405,20.2055242 29.8104506,19.7212406 30.1894445,19.4520883 L36.6039101,14.8434723 C36.9852716,14.5691739 37.1435978,14.0785224 36.9944957,13.6330511 C36.8453935,13.1875798 36.4236078,12.8910954 35.9539643,12.901634 Z" id="Star"></path>
                </g>
                <g id="Overrides/Tab-Bar/Icons/Active/1" transform="translate(217.000000, 273.000000)" fill="#4BCBB6">
                    <path d="M35.9539643,12.901634 L28.0496227,12.901634 C27.5769371,12.9042304 27.1558005,12.6035912 27.0047097,12.1556962 L24.5699126,4.74681333 C24.4170427,4.30011836 23.9971284,4 23.5249996,4 C23.0528708,4 22.6329566,4.30011836 22.4800867,4.74681333 L20.0452895,12.1556962 C19.8941988,12.6035912 19.4730621,12.9042304 19.0003765,12.901634 L11.096035,12.901634 C10.6263914,12.8910954 10.2046057,13.1875798 10.0555036,13.6330511 C9.90640144,14.0785224 10.0647276,14.5691739 10.4460891,14.8434723 L16.8605548,19.4520883 C17.2395487,19.7212406 17.3995587,20.2055242 17.2555219,20.6474888 L14.8107255,28.0893688 C14.705656,28.4213337 14.7666996,28.7835751 14.9747601,29.0627724 C15.1828205,29.3419697 15.5124902,29.5040285 15.8606381,29.4982515 C16.0928005,29.4971693 16.3186269,29.422419 16.5055844,29.2847693 L22.8750538,24.7091504 C23.2637737,24.4311921 23.7862255,24.4311921 24.1749455,24.7091504 L30.5444149,29.2847693 C30.7313723,29.422419 30.9571988,29.4971693 31.1893612,29.4982515 C31.537509,29.5040285 31.8671787,29.3419697 32.0752392,29.0627724 C32.2832996,28.7835751 32.3443433,28.4213337 32.2392737,28.0893688 L29.7944774,20.6474888 C29.6504405,20.2055242 29.8104506,19.7212406 30.1894445,19.4520883 L36.6039101,14.8434723 C36.9852716,14.5691739 37.1435978,14.0785224 36.9944957,13.6330511 C36.8453935,13.1875798 36.4236078,12.8910954 35.9539643,12.901634 Z" id="Star"></path>
                </g>
                <g id="Overrides/Tab-Bar/Icons/Active/1" transform="translate(246.000000, 273.000000)" fill="#4BCBB6">
                    <path d="M35.9539643,12.901634 L28.0496227,12.901634 C27.5769371,12.9042304 27.1558005,12.6035912 27.0047097,12.1556962 L24.5699126,4.74681333 C24.4170427,4.30011836 23.9971284,4 23.5249996,4 C23.0528708,4 22.6329566,4.30011836 22.4800867,4.74681333 L20.0452895,12.1556962 C19.8941988,12.6035912 19.4730621,12.9042304 19.0003765,12.901634 L11.096035,12.901634 C10.6263914,12.8910954 10.2046057,13.1875798 10.0555036,13.6330511 C9.90640144,14.0785224 10.0647276,14.5691739 10.4460891,14.8434723 L16.8605548,19.4520883 C17.2395487,19.7212406 17.3995587,20.2055242 17.2555219,20.6474888 L14.8107255,28.0893688 C14.705656,28.4213337 14.7666996,28.7835751 14.9747601,29.0627724 C15.1828205,29.3419697 15.5124902,29.5040285 15.8606381,29.4982515 C16.0928005,29.4971693 16.3186269,29.422419 16.5055844,29.2847693 L22.8750538,24.7091504 C23.2637737,24.4311921 23.7862255,24.4311921 24.1749455,24.7091504 L30.5444149,29.2847693 C30.7313723,29.422419 30.9571988,29.4971693 31.1893612,29.4982515 C31.537509,29.5040285 31.8671787,29.3419697 32.0752392,29.0627724 C32.2832996,28.7835751 32.3443433,28.4213337 32.2392737,28.0893688 L29.7944774,20.6474888 C29.6504405,20.2055242 29.8104506,19.7212406 30.1894445,19.4520883 L36.6039101,14.8434723 C36.9852716,14.5691739 37.1435978,14.0785224 36.9944957,13.6330511 C36.8453935,13.1875798 36.4236078,12.8910954 35.9539643,12.901634 Z" id="Star"></path>
                </g>
                <g id="Overrides/Tab-Bar/Icons/Active/1" transform="translate(131.000000, 273.000000)" fill="#4BCBB6">
                    <path d="M35.9539643,12.901634 L28.0496227,12.901634 C27.5769371,12.9042304 27.1558005,12.6035912 27.0047097,12.1556962 L24.5699126,4.74681333 C24.4170427,4.30011836 23.9971284,4 23.5249996,4 C23.0528708,4 22.6329566,4.30011836 22.4800867,4.74681333 L20.0452895,12.1556962 C19.8941988,12.6035912 19.4730621,12.9042304 19.0003765,12.901634 L11.096035,12.901634 C10.6263914,12.8910954 10.2046057,13.1875798 10.0555036,13.6330511 C9.90640144,14.0785224 10.0647276,14.5691739 10.4460891,14.8434723 L16.8605548,19.4520883 C17.2395487,19.7212406 17.3995587,20.2055242 17.2555219,20.6474888 L14.8107255,28.0893688 C14.705656,28.4213337 14.7666996,28.7835751 14.9747601,29.0627724 C15.1828205,29.3419697 15.5124902,29.5040285 15.8606381,29.4982515 C16.0928005,29.4971693 16.3186269,29.422419 16.5055844,29.2847693 L22.8750538,24.7091504 C23.2637737,24.4311921 23.7862255,24.4311921 24.1749455,24.7091504 L30.5444149,29.2847693 C30.7313723,29.422419 30.9571988,29.4971693 31.1893612,29.4982515 C31.537509,29.5040285 31.8671787,29.3419697 32.0752392,29.0627724 C32.2832996,28.7835751 32.3443433,28.4213337 32.2392737,28.0893688 L29.7944774,20.6474888 C29.6504405,20.2055242 29.8104506,19.7212406 30.1894445,19.4520883 L36.6039101,14.8434723 C36.9852716,14.5691739 37.1435978,14.0785224 36.9944957,13.6330511 C36.8453935,13.1875798 36.4236078,12.8910954 35.9539643,12.901634 Z" id="Star"></path>
                </g>
            </g>
        </g>
    </g>
</svg>