<svg id="Capa_1" data-name="Capa 1" xmlns="http://www.w3.org/2000/svg" viewBox="0 0 247.21 301.13"><defs><style>.cls-1{fill:#38cbc5;}.cls-2{isolation:isolate;}</style></defs><title>di-simbol</title><path class="cls-1" d="M263.38,117.18c-4.13-20.52-19.5-39.82-40.84-47.51C181.84,54.89,139.15,89,140,91c.72,1.59,38.85-16,48.67-5.62,7.12,7.58-11.1,21.86-9.53,49.22.42,7.08,1.42,24.3,15.22,35.05s35,11.23,49.67,3.05C270.92,158,264.09,120.59,263.38,117.18Z" transform="translate(-29.54 -65.97)"/><path class="cls-1" d="M222.83,205.45c-28.4,33.1,11.9,63.7-17.2,113.1-10,17-23.3,27.8-18.5,34.5,7.4,10.2,47.6-2.5,51-3.5,11.4-3.6,17.7-5.7,20.6-10.4,6-9.9-11.4-18-21.1-36.3-14.8-27.8-4-64.7,11-88.1,13.6-21.1,30.7-31.5,27.8-34.6C272.93,176.35,240.23,185.15,222.83,205.45Z" transform="translate(-29.54 -65.97)"/><g class="cls-2"><path class="cls-1" d="M103.13,361.15c-2.7-4-56-178.48,17.2-195.53h0c31.67-6,65.81,8.61,79.08,25.82s19.92,42.68,19.92,76.37q0,49-19.2,74.16T143.58,367.1S105.83,365.12,103.13,361.15ZM82,225C9.33,243,10.67,327.67,95.33,327,222,326,210.49,193.17,82,225Z" transform="translate(-29.54 -65.97)"/></g></svg>