<?xml version="1.0" encoding="utf-8"?>
<!-- Generator: Adobe Illustrator 22.1.0, SVG Export Plug-In . SVG Version: 6.00 Build 0)  -->
<svg version="1.1" id="Capa_1" xmlns="http://www.w3.org/2000/svg" xmlns:xlink="http://www.w3.org/1999/xlink" x="0px" y="0px"
	 viewBox="0 0 735.7 444" style="enable-background:new 0 0 735.7 444;" xml:space="preserve">
<style type="text/css">
	.st0{fill:#38CBC5;}
	.st1{enable-background:new    ;}
	.st2{font-family:'Nunito-Bold';}
	.st3{font-size:155.1154px;}
</style>
<title>di</title>
<g>
	<g>
		<path class="st0" d="M457.3,56.3c-3.7-19.9-18.5-38.8-39.3-46.6c-39.7-15-82.3,17.2-81.5,19.2c0.7,1.5,38.4-14.8,47.9-4.6
			c6.9,7.4-11.3,20.9-10.2,47.4c0.3,6.9,1,23.5,14.4,34.2c13.2,10.5,34.2,11.5,48.7,3.8C464,95.9,457.9,59.6,457.3,56.3z"/>
		<path class="st0" d="M415.9,140.9c-28.5,31.5,10.6,61.8-18.8,109.1c-10.1,16.3-23.4,26.5-18.8,33c7.1,10,46.8-1.6,50.2-2.5
			c11.3-3.3,17.5-5.2,20.4-9.7c6.1-9.5-10.9-17.6-20.1-35.5c-14.1-27.1-2.8-62.6,12.3-85c13.7-20.2,30.7-29.9,27.9-33
			C465.6,113.7,433.4,121.6,415.9,140.9z"/>
	</g>
	<g class="st1">
		<path class="st0" d="M295.6,289.4c-2.6-3.9-51.9-173.5,20.3-188.8l0,0c31.2-5.2,64.5,9.5,77.3,26.4c12.7,16.9,18.8,41.6,18.3,74.2
			c-0.6,31.6-7.3,55.4-20.1,71.4c-12.9,16-31.5,23.7-56,23.3C335.3,295.8,298.2,293.3,295.6,289.4z M277.2,157.4
			c-71.7,16.1-71.9,98,11.3,98.9C413,257.5,404,128.8,277.2,157.4z"/>
	</g>
</g>
<text transform="matrix(1.1009 7.710056e-03 -6.744544e-03 1 112.9721 408.4341)" class="st0 st2 st3">webdi</text>
</svg>
