<?xml version="1.0" encoding="utf-8"?>
<!-- Generator: Adobe Illustrator 22.1.0, SVG Export Plug-In . SVG Version: 6.00 Build 0)  -->
<svg version="1.1" id="Capa_1" xmlns="http://www.w3.org/2000/svg" xmlns:xlink="http://www.w3.org/1999/xlink" x="0px" y="0px"
	 viewBox="0 0 735.7 444" style="enable-background:new 0 0 735.7 444;" xml:space="preserve">
<style type="text/css">
	.st0{fill:#FFFFFF;}
	.st1{enable-background:new    ;}
</style>
<title>di</title>
<g>
	<g>
		<path class="st0" d="M404.8,165.7c-2.2-10.9-10.4-21.2-21.9-25.3c-21.8-7.9-44.7,10.3-44.2,11.4c0.4,0.8,20.8-8.5,26.1-3
			c3.8,4-5.9,11.7-5.1,26.3c0.2,3.8,0.8,13,8.2,18.7c7.3,5.7,18.8,6,26.6,1.6C408.9,187.4,405.2,167.5,404.8,165.7z"/>
		<path class="st0" d="M383.1,212.8c-15.2,17.7,6.4,34-9.2,60.3c-5.4,9.1-12.5,14.8-9.9,18.4c4,5.4,25.5-1.3,27.3-1.9
			c6.1-1.9,9.5-3,11-5.5c3.2-5.3-6.1-9.6-11.3-19.4c-7.9-14.8-2.1-34.5,5.9-47c7.3-11.3,16.4-16.8,14.9-18.5
			C410,197.2,392.4,201.9,383.1,212.8z"/>
	</g>
	<g class="st1">
		<path class="st0" d="M319,295.8c-1.4-2.1-30-95.2,9.2-104.3l0,0c17-3.2,35.3,4.6,42.4,13.8c7.1,9.2,10.7,22.8,10.7,40.7
			c0,17.4-3.4,30.6-10.3,39.6c-6.9,8.9-17,13.4-30.3,13.4C340.6,299,320.4,297.9,319,295.8z M307.6,223.2
			c-38.9,9.6-38.2,54.8,7.1,54.4C382.7,277.1,376.5,206.2,307.6,223.2z"/>
	</g>
</g>
</svg>
